<?xml version="1.0" standalone="no"?>
<!DOCTYPE svg PUBLIC "-//W3C//DTD SVG 20010904//EN"
 "http://www.w3.org/TR/2001/REC-SVG-20010904/DTD/svg10.dtd">
<svg version="1.0" xmlns="http://www.w3.org/2000/svg"
 width="63.000000pt" height="63.000000pt" viewBox="0 0 63.000000 63.000000"
 preserveAspectRatio="xMidYMid meet">

<g transform="translate(0.000000,63.000000) scale(0.100000,-0.100000)"
fill="#000000" stroke="none">
<path d="M56 359 c-33 -26 -33 -53 -1 -84 31 -31 49 -31 80 0 14 13 25 31 25
40 0 20 -44 65 -63 65 -8 0 -26 -9 -41 -21z"/>
<path d="M275 355 c-14 -13 -25 -31 -25 -40 0 -21 44 -65 65 -65 9 0 27 11 40
25 14 13 25 31 25 40 0 21 -44 65 -65 65 -9 0 -27 -11 -40 -25z"/>
<path d="M495 355 c-14 -13 -25 -31 -25 -40 0 -21 44 -65 65 -65 21 0 65 44
65 65 0 21 -44 65 -65 65 -9 0 -27 -11 -40 -25z"/>
</g>
</svg>
