<?xml version="1.0" standalone="no"?>
<!DOCTYPE svg PUBLIC "-//W3C//DTD SVG 20010904//EN"
 "http://www.w3.org/TR/2001/REC-SVG-20010904/DTD/svg10.dtd">
<svg version="1.0" xmlns="http://www.w3.org/2000/svg"
 width="63.000000pt" height="63.000000pt" viewBox="0 0 63.000000 63.000000"
 preserveAspectRatio="xMidYMid meet">

<g transform="translate(0.000000,63.000000) scale(0.100000,-0.100000)"
fill="#000000" stroke="none">
<path d="M37 533 c-4 -3 -7 -19 -7 -35 l0 -28 286 0 285 0 -3 33 -3 32 -276 3
c-151 1 -278 -1 -282 -5z"/>
<path d="M30 315 l0 -35 285 0 285 0 0 35 0 35 -285 0 -285 0 0 -35z"/>
<path d="M32 128 l3 -33 280 0 280 0 3 33 3 32 -286 0 -286 0 3 -32z"/>
</g>
</svg>
