<?xml version="1.0" standalone="no"?>
<!DOCTYPE svg PUBLIC "-//W3C//DTD SVG 20010904//EN"
 "http://www.w3.org/TR/2001/REC-SVG-20010904/DTD/svg10.dtd">
<svg version="1.0" xmlns="http://www.w3.org/2000/svg"
 width="64.000000pt" height="64.000000pt" viewBox="0 0 64.000000 64.000000"
 preserveAspectRatio="xMidYMid meet">

<g transform="translate(0.000000,64.000000) scale(0.100000,-0.100000)"
fill="#000000" stroke="none">
<path d="M190 631 c-179 -55 -247 -271 -130 -413 70 -85 217 -115 311 -64 l44
24 92 -91 c64 -63 96 -88 107 -84 40 16 29 39 -61 130 l-91 92 24 44 c51 94
21 241 -64 311 -62 51 -160 73 -232 51z m162 -82 c111 -56 129 -224 33 -307
-126 -112 -321 -24 -319 143 1 28 8 64 17 81 21 41 80 92 115 100 15 3 32 7
37 9 18 7 79 -6 117 -26z"/>
</g>
</svg>
