<svg width="45" height="44" viewBox="0 0 45 44" fill="none" xmlns="http://www.w3.org/2000/svg">
<path d="M28 12C27.6022 12 27.2206 11.842 26.9393 11.5607C26.658 11.2794 26.5 10.8978 26.5 10.5C26.5 10.1022 26.658 9.72064 26.9393 9.43934C27.2206 9.15804 27.6022 9 28 9C28.3978 9 28.7794 9.15804 29.0607 9.43934C29.342 9.72064 29.5 10.1022 29.5 10.5C29.5 10.8978 29.342 11.2794 29.0607 11.5607C28.7794 11.842 28.3978 12 28 12ZM25 8C24.6022 8 24.2206 7.84196 23.9393 7.56066C23.658 7.27936 23.5 6.89782 23.5 6.5C23.5 6.10218 23.658 5.72064 23.9393 5.43934C24.2206 5.15804 24.6022 5 25 5C25.3978 5 25.7794 5.15804 26.0607 5.43934C26.342 5.72064 26.5 6.10218 26.5 6.5C26.5 6.89782 26.342 7.27936 26.0607 7.56066C25.7794 7.84196 25.3978 8 25 8ZM20 8C19.6022 8 19.2206 7.84196 18.9393 7.56066C18.658 7.27936 18.5 6.89782 18.5 6.5C18.5 6.10218 18.658 5.72064 18.9393 5.43934C19.2206 5.15804 19.6022 5 20 5C20.3978 5 20.7794 5.15804 21.0607 5.43934C21.342 5.72064 21.5 6.10218 21.5 6.5C21.5 6.89782 21.342 7.27936 21.0607 7.56066C20.7794 7.84196 20.3978 8 20 8ZM17 12C16.6022 12 16.2206 11.842 15.9393 11.5607C15.658 11.2794 15.5 10.8978 15.5 10.5C15.5 10.1022 15.658 9.72064 15.9393 9.43934C16.2206 9.15804 16.6022 9 17 9C17.3978 9 17.7794 9.15804 18.0607 9.43934C18.342 9.72064 18.5 10.1022 18.5 10.5C18.5 10.8978 18.342 11.2794 18.0607 11.5607C17.7794 11.842 17.3978 12 17 12ZM22.5 3C20.1131 3 17.8239 3.94821 16.136 5.63604C14.4482 7.32387 13.5 9.61305 13.5 12C13.5 14.3869 14.4482 16.6761 16.136 18.364C17.8239 20.0518 20.1131 21 22.5 21C22.8978 21 23.2794 20.842 23.5607 20.5607C23.842 20.2794 24 19.8978 24 19.5C24 19.11 23.85 18.76 23.61 18.5C23.38 18.23 23.23 17.88 23.23 17.5C23.23 17.1022 23.388 16.7206 23.6693 16.4393C23.9506 16.158 24.3322 16 24.73 16H26.5C27.8261 16 29.0979 15.4732 30.0355 14.5355C30.9732 13.5979 31.5 12.3261 31.5 11C31.5 6.58 27.47 3 22.5 3Z" fill="black"/>
<path d="M2.8267 43H0.497159L5.73153 28.4545H8.26705L13.5014 43H11.1719L7.05966 31.0966H6.94602L2.8267 43ZM3.21733 37.304H10.7741V39.1506H3.21733V37.304ZM15.4315 43V32.0909H17.484V33.8239H17.5977C17.7965 33.2367 18.1469 32.7751 18.6488 32.4389C19.1554 32.098 19.7283 31.9276 20.3675 31.9276C20.5001 31.9276 20.6564 31.9323 20.8363 31.9418C21.021 31.9512 21.1654 31.9631 21.2695 31.9773V34.0085C21.1843 33.9848 21.0328 33.9588 20.815 33.9304C20.5972 33.8973 20.3794 33.8807 20.1616 33.8807C19.6597 33.8807 19.2122 33.9872 18.8192 34.2003C18.431 34.4086 18.1232 34.6998 17.896 35.0739C17.6687 35.4432 17.555 35.8646 17.555 36.3381V43H15.4315ZM28.8441 32.0909V33.7955H22.8853V32.0909H28.8441ZM24.4833 29.4773H26.6069V39.7969C26.6069 40.2088 26.6684 40.5189 26.7915 40.7273C26.9147 40.9309 27.0733 41.0705 27.2674 41.1463C27.4663 41.2173 27.6817 41.2528 27.9137 41.2528C28.0842 41.2528 28.2333 41.241 28.3612 41.2173C28.489 41.1937 28.5884 41.1747 28.6594 41.1605L29.043 42.9148C28.9199 42.9621 28.7447 43.0095 28.5174 43.0568C28.2901 43.1089 28.006 43.1373 27.6651 43.142C27.1064 43.1515 26.5856 43.0521 26.1026 42.8438C25.6197 42.6354 25.229 42.3134 24.9308 41.8778C24.6325 41.4422 24.4833 40.8954 24.4833 40.2372V29.4773ZM35.7777 43.2202C34.7029 43.2202 33.7772 42.9905 33.0007 42.5312C32.2289 42.0672 31.6323 41.4162 31.2109 40.5781C30.7943 39.7353 30.5859 38.7481 30.5859 37.6165C30.5859 36.4991 30.7943 35.5142 31.2109 34.6619C31.6323 33.8097 32.2195 33.1444 32.9723 32.6662C33.7299 32.188 34.6153 31.9489 35.6286 31.9489C36.2441 31.9489 36.8407 32.0507 37.4183 32.2543C37.996 32.4579 38.5144 32.7775 38.9737 33.2131C39.433 33.6487 39.7952 34.2145 40.0604 34.9105C40.3255 35.6018 40.4581 36.4422 40.4581 37.4318V38.1847H31.7862V36.5938H38.3771C38.3771 36.035 38.2635 35.5402 38.0362 35.1094C37.8089 34.6738 37.4893 34.3305 37.0774 34.0795C36.6702 33.8286 36.192 33.7031 35.6428 33.7031C35.0462 33.7031 34.5253 33.8499 34.0803 34.1435C33.6399 34.4323 33.299 34.8111 33.0575 35.2798C32.8208 35.7438 32.7024 36.2481 32.7024 36.7926V38.0355C32.7024 38.7647 32.8303 39.3849 33.0859 39.8963C33.3464 40.4077 33.7086 40.7983 34.1726 41.0682C34.6366 41.3333 35.1787 41.4659 35.799 41.4659C36.2015 41.4659 36.5684 41.4091 36.8999 41.2955C37.2313 41.1771 37.5178 41.0019 37.7592 40.7699C38.0007 40.5379 38.1854 40.2514 38.3132 39.9105L40.3232 40.2727C40.1622 40.8646 39.8733 41.383 39.4567 41.8281C39.0447 42.2685 38.5263 42.6117 37.9013 42.858C37.281 43.0994 36.5732 43.2202 35.7777 43.2202Z" fill="black"/>
</svg>
