<svg width="89" height="48" viewBox="0 0 89 48" fill="none" xmlns="http://www.w3.org/2000/svg">
<path d="M53.5 5V7H35.5V5H53.5ZM35.5 17H44.5V15H35.5V17ZM35.5 12H53.5V10H35.5V12ZM50.5 14C51.0304 14 51.5391 14.2107 51.9142 14.5858C52.2893 14.9609 52.5 15.4696 52.5 16C52.5 16.5304 52.2893 17.0391 51.9142 17.4142C51.5391 17.7893 51.0304 18 50.5 18C49.39 18 48.5 17.11 48.5 16C48.5 14.89 49.4 14 50.5 14ZM46.5 22V21C46.5 19.9 48.29 19 50.5 19C52.71 19 54.5 19.9 54.5 21V22H46.5Z" fill="black"/>
<path d="M1.59801 43V28.4545H6.92472C7.95691 28.4545 8.81155 28.625 9.48864 28.9659C10.1657 29.3021 10.6723 29.759 11.0085 30.3366C11.3447 30.9096 11.5128 31.5559 11.5128 32.2756C11.5128 32.8816 11.4015 33.393 11.179 33.8097C10.9564 34.2216 10.6581 34.553 10.2841 34.804C9.91477 35.0502 9.50758 35.2301 9.0625 35.3438V35.4858C9.54545 35.5095 10.0166 35.6657 10.4759 35.9545C10.9399 36.2386 11.3234 36.6435 11.6264 37.169C11.9295 37.6946 12.081 38.3338 12.081 39.0866C12.081 39.83 11.9058 40.4976 11.5554 41.0895C11.2098 41.6766 10.6747 42.143 9.95028 42.4886C9.22585 42.8295 8.30019 43 7.1733 43H1.59801ZM3.79261 41.1179H6.96023C8.01136 41.1179 8.7642 40.9143 9.21875 40.5071C9.6733 40.0999 9.90057 39.5909 9.90057 38.9801C9.90057 38.5208 9.78456 38.0994 9.55256 37.7159C9.32055 37.3324 8.98911 37.027 8.55824 36.7997C8.1321 36.5724 7.62547 36.4588 7.03835 36.4588H3.79261V41.1179ZM3.79261 34.7472H6.73295C7.22538 34.7472 7.66809 34.6525 8.06108 34.4631C8.45881 34.2737 8.77367 34.0085 9.00568 33.6676C9.24242 33.322 9.3608 32.9148 9.3608 32.446C9.3608 31.8447 9.15009 31.3404 8.72869 30.9332C8.30729 30.526 7.66099 30.3224 6.78977 30.3224H3.79261V34.7472ZM14.5135 43V32.0909H16.6371V43H14.5135ZM15.5859 30.4077C15.2166 30.4077 14.8994 30.2846 14.6342 30.0384C14.3738 29.7874 14.2436 29.4891 14.2436 29.1435C14.2436 28.7931 14.3738 28.4948 14.6342 28.2486C14.8994 27.9976 15.2166 27.8722 15.5859 27.8722C15.9553 27.8722 16.2701 27.9976 16.5305 28.2486C16.7957 28.4948 16.9283 28.7931 16.9283 29.1435C16.9283 29.4891 16.7957 29.7874 16.5305 30.0384C16.2701 30.2846 15.9553 30.4077 15.5859 30.4077ZM24.0891 43.2202C23.0664 43.2202 22.1739 42.9858 21.4116 42.517C20.6493 42.0483 20.0574 41.3925 19.636 40.5497C19.2146 39.7069 19.0039 38.7221 19.0039 37.5952C19.0039 36.4635 19.2146 35.474 19.636 34.6264C20.0574 33.7789 20.6493 33.1207 21.4116 32.652C22.1739 32.1832 23.0664 31.9489 24.0891 31.9489C25.1119 31.9489 26.0044 32.1832 26.7667 32.652C27.529 33.1207 28.1209 33.7789 28.5423 34.6264C28.9637 35.474 29.1744 36.4635 29.1744 37.5952C29.1744 38.7221 28.9637 39.7069 28.5423 40.5497C28.1209 41.3925 27.529 42.0483 26.7667 42.517C26.0044 42.9858 25.1119 43.2202 24.0891 43.2202ZM24.0962 41.4375C24.7591 41.4375 25.3084 41.2623 25.744 40.9119C26.1796 40.5616 26.5015 40.0952 26.7099 39.5128C26.9229 38.9304 27.0295 38.2888 27.0295 37.5881C27.0295 36.892 26.9229 36.2528 26.7099 35.6705C26.5015 35.0833 26.1796 34.6122 25.744 34.2571C25.3084 33.902 24.7591 33.7244 24.0962 33.7244C23.4286 33.7244 22.8746 33.902 22.4343 34.2571C21.9987 34.6122 21.6744 35.0833 21.4613 35.6705C21.253 36.2528 21.1488 36.892 21.1488 37.5881C21.1488 38.2888 21.253 38.9304 21.4613 39.5128C21.6744 40.0952 21.9987 40.5616 22.4343 40.9119C22.8746 41.2623 23.4286 41.4375 24.0962 41.4375ZM36.1186 47.3182C35.2521 47.3182 34.5064 47.2045 33.8814 46.9773C33.2611 46.75 32.7545 46.4493 32.3615 46.0753C31.9685 45.7012 31.675 45.2917 31.4808 44.8466L33.3061 44.0938C33.4339 44.3021 33.6044 44.5223 33.8175 44.7543C34.0353 44.991 34.3288 45.1922 34.6982 45.358C35.0722 45.5237 35.5528 45.6065 36.1399 45.6065C36.9448 45.6065 37.6101 45.41 38.1357 45.017C38.6612 44.6288 38.924 44.0085 38.924 43.1562V41.0114H38.7891C38.6612 41.2434 38.4766 41.5014 38.2351 41.7855C37.9983 42.0696 37.6716 42.3158 37.255 42.5241C36.8383 42.7325 36.2962 42.8366 35.6286 42.8366C34.7668 42.8366 33.9903 42.6354 33.299 42.233C32.6125 41.8258 32.0679 41.2268 31.6655 40.4361C31.2678 39.6406 31.0689 38.6629 31.0689 37.5028C31.0689 36.3428 31.2654 35.3485 31.6584 34.5199C32.0561 33.6913 32.6006 33.0568 33.2919 32.6165C33.9832 32.1714 34.7668 31.9489 35.6428 31.9489C36.3198 31.9489 36.8667 32.0625 37.2834 32.2898C37.7 32.5123 38.0244 32.7727 38.2564 33.071C38.4931 33.3693 38.6754 33.6321 38.8033 33.8594H38.9595V32.0909H41.0405V43.2415C41.0405 44.179 40.8227 44.9484 40.3871 45.5497C39.9515 46.151 39.362 46.5961 38.6186 46.8849C37.88 47.1738 37.0466 47.3182 36.1186 47.3182ZM36.0973 41.0753C36.7081 41.0753 37.2242 40.9332 37.6456 40.6491C38.0717 40.3603 38.3937 39.9484 38.6115 39.4134C38.834 38.8736 38.9453 38.2273 38.9453 37.4744C38.9453 36.7405 38.8364 36.0942 38.6186 35.5355C38.4008 34.9768 38.0812 34.5412 37.6598 34.2287C37.2384 33.9115 36.7176 33.7528 36.0973 33.7528C35.4581 33.7528 34.9254 33.9186 34.4993 34.25C34.0732 34.5767 33.7512 35.0218 33.5334 35.5852C33.3203 36.1487 33.2138 36.7784 33.2138 37.4744C33.2138 38.1894 33.3227 38.8168 33.5405 39.3565C33.7583 39.8963 34.0803 40.3177 34.5064 40.6207C34.9373 40.9238 35.4676 41.0753 36.0973 41.0753ZM43.8885 43V32.0909H45.9411V33.8239H46.0547C46.2536 33.2367 46.6039 32.7751 47.1058 32.4389C47.6125 32.098 48.1854 31.9276 48.8246 31.9276C48.9571 31.9276 49.1134 31.9323 49.2933 31.9418C49.478 31.9512 49.6224 31.9631 49.7266 31.9773V34.0085C49.6413 33.9848 49.4898 33.9588 49.272 33.9304C49.0542 33.8973 48.8364 33.8807 48.6186 33.8807C48.1167 33.8807 47.6693 33.9872 47.2763 34.2003C46.888 34.4086 46.5803 34.6998 46.353 35.0739C46.1257 35.4432 46.0121 35.8646 46.0121 36.3381V43H43.8885ZM54.6413 43.2415C53.95 43.2415 53.325 43.1136 52.7663 42.858C52.2076 42.5975 51.7649 42.2211 51.4382 41.7287C51.1162 41.2363 50.9553 40.6326 50.9553 39.9176C50.9553 39.3021 51.0736 38.7955 51.3104 38.3977C51.5471 38 51.8667 37.6851 52.2692 37.4531C52.6716 37.2211 53.1214 37.0459 53.6186 36.9276C54.1158 36.8092 54.6224 36.7192 55.1385 36.6577C55.7919 36.5819 56.3222 36.5204 56.7294 36.473C57.1366 36.4209 57.4325 36.3381 57.6172 36.2244C57.8018 36.1108 57.8942 35.9261 57.8942 35.6705V35.6207C57.8942 35.0005 57.719 34.5199 57.3686 34.179C57.023 33.8381 56.5069 33.6676 55.8203 33.6676C55.1054 33.6676 54.5419 33.8262 54.13 34.1435C53.7228 34.456 53.4411 34.804 53.2848 35.1875L51.2891 34.733C51.5258 34.0701 51.8714 33.535 52.326 33.1278C52.7853 32.7159 53.3132 32.4176 53.9098 32.233C54.5064 32.0436 55.1338 31.9489 55.7919 31.9489C56.2275 31.9489 56.6892 32.0009 57.1768 32.1051C57.6693 32.2045 58.1286 32.3892 58.5547 32.6591C58.9856 32.929 59.3383 33.3149 59.6129 33.8168C59.8875 34.3139 60.0249 34.9602 60.0249 35.7557V43H57.951V41.5085H57.8658C57.7285 41.7831 57.5225 42.053 57.2479 42.3182C56.9732 42.5833 56.6205 42.8035 56.1896 42.9787C55.7588 43.1539 55.2427 43.2415 54.6413 43.2415ZM55.103 41.5369C55.6901 41.5369 56.192 41.4209 56.6087 41.1889C57.0301 40.9569 57.3497 40.6539 57.5675 40.2798C57.79 39.901 57.9013 39.4962 57.9013 39.0653V37.6591C57.8255 37.7348 57.6787 37.8059 57.4609 37.8722C57.2479 37.9337 57.004 37.9882 56.7294 38.0355C56.4548 38.0781 56.1873 38.1184 55.9268 38.1562C55.6664 38.1894 55.4486 38.2178 55.2734 38.2415C54.8615 38.2936 54.4851 38.3812 54.1442 38.5043C53.808 38.6274 53.5381 38.8049 53.3345 39.0369C53.1357 39.2642 53.0362 39.5672 53.0362 39.946C53.0362 40.4716 53.2304 40.8693 53.6186 41.1392C54.0069 41.4044 54.5017 41.5369 55.103 41.5369ZM68.0451 32.0909V33.7955H61.8803V32.0909H68.0451ZM63.5707 43V30.8267C63.5707 30.1449 63.7198 29.5791 64.0181 29.1293C64.3164 28.6747 64.7118 28.3362 65.2042 28.1136C65.6966 27.8864 66.2317 27.7727 66.8093 27.7727C67.2354 27.7727 67.6 27.8082 67.9031 27.8793C68.2061 27.9455 68.431 28.0071 68.5778 28.0639L68.0806 29.7827C67.9812 29.7543 67.8533 29.7211 67.6971 29.6832C67.5408 29.6406 67.3514 29.6193 67.1289 29.6193C66.6128 29.6193 66.2435 29.7472 66.021 30.0028C65.8031 30.2585 65.6942 30.6278 65.6942 31.1108V43H63.5707ZM70.2362 43V32.0909H72.3597V43H70.2362ZM71.3086 30.4077C70.9393 30.4077 70.622 30.2846 70.3569 30.0384C70.0965 29.7874 69.9663 29.4891 69.9663 29.1435C69.9663 28.7931 70.0965 28.4948 70.3569 28.2486C70.622 27.9976 70.9393 27.8722 71.3086 27.8722C71.6779 27.8722 71.9928 27.9976 72.2532 28.2486C72.5183 28.4948 72.6509 28.7931 72.6509 29.1435C72.6509 29.4891 72.5183 29.7874 72.2532 30.0384C71.9928 30.2846 71.6779 30.4077 71.3086 30.4077ZM78.3913 43.2415C77.7 43.2415 77.075 43.1136 76.5163 42.858C75.9576 42.5975 75.5149 42.2211 75.1882 41.7287C74.8662 41.2363 74.7053 40.6326 74.7053 39.9176C74.7053 39.3021 74.8236 38.7955 75.0604 38.3977C75.2971 38 75.6167 37.6851 76.0192 37.4531C76.4216 37.2211 76.8714 37.0459 77.3686 36.9276C77.8658 36.8092 78.3724 36.7192 78.8885 36.6577C79.5419 36.5819 80.0722 36.5204 80.4794 36.473C80.8866 36.4209 81.1825 36.3381 81.3672 36.2244C81.5518 36.1108 81.6442 35.9261 81.6442 35.6705V35.6207C81.6442 35.0005 81.469 34.5199 81.1186 34.179C80.773 33.8381 80.2569 33.6676 79.5703 33.6676C78.8554 33.6676 78.2919 33.8262 77.88 34.1435C77.4728 34.456 77.1911 34.804 77.0348 35.1875L75.0391 34.733C75.2758 34.0701 75.6214 33.535 76.076 33.1278C76.5353 32.7159 77.0632 32.4176 77.6598 32.233C78.2564 32.0436 78.8838 31.9489 79.5419 31.9489C79.9775 31.9489 80.4392 32.0009 80.9268 32.1051C81.4193 32.2045 81.8786 32.3892 82.3047 32.6591C82.7356 32.929 83.0883 33.3149 83.3629 33.8168C83.6375 34.3139 83.7749 34.9602 83.7749 35.7557V43H81.701V41.5085H81.6158C81.4785 41.7831 81.2725 42.053 80.9979 42.3182C80.7232 42.5833 80.3705 42.8035 79.9396 42.9787C79.5088 43.1539 78.9927 43.2415 78.3913 43.2415ZM78.853 41.5369C79.4401 41.5369 79.942 41.4209 80.3587 41.1889C80.7801 40.9569 81.0997 40.6539 81.3175 40.2798C81.54 39.901 81.6513 39.4962 81.6513 39.0653V37.6591C81.5755 37.7348 81.4287 37.8059 81.2109 37.8722C80.9979 37.9337 80.754 37.9882 80.4794 38.0355C80.2048 38.0781 79.9373 38.1184 79.6768 38.1562C79.4164 38.1894 79.1986 38.2178 79.0234 38.2415C78.6115 38.2936 78.2351 38.3812 77.8942 38.5043C77.558 38.6274 77.2881 38.8049 77.0845 39.0369C76.8857 39.2642 76.7862 39.5672 76.7862 39.946C76.7862 40.4716 76.9804 40.8693 77.3686 41.1392C77.7569 41.4044 78.2517 41.5369 78.853 41.5369Z" fill="black"/>
</svg>
