<svg width="98" height="49" viewBox="0 0 98 49" fill="none" xmlns="http://www.w3.org/2000/svg">
<path d="M49.5 19.5V22.5M47.5 22.5H51.5" stroke="black" stroke-width="1.5" stroke-linecap="round" stroke-linejoin="round"/>
<path d="M50.5 16.5C46.634 16.5 43.5 13.366 43.5 9.5C43.5 5.63401 46.634 2.5 50.5 2.5C54.366 2.5 57.5 5.63401 57.5 9.5C57.5 13.366 54.366 16.5 50.5 16.5Z" stroke="black" stroke-width="1.5" stroke-linecap="round" stroke-linejoin="round"/>
<path d="M45.5 4.5C46.154 4.538 46.492 4.859 47.073 5.473C48.123 6.583 49.173 6.675 49.873 6.305C50.922 5.75 50.04 4.852 51.272 4.365C52.075 4.045 52.187 3.18 51.74 2.5M57 10.5C55.5 10.5 55.234 11.747 54 11.5C51.5 11 50.792 11.559 50.792 12.751C50.792 13.943 50.792 13.943 50.272 14.837C49.934 15.419 49.815 16 50.489 16.5" stroke="black" stroke-width="1.5" stroke-linecap="round" stroke-linejoin="round"/>
<path d="M43.5 2.5C42.5504 3.41901 41.7954 4.5197 41.28 5.73655C40.7646 6.95339 40.4993 8.26151 40.5 9.583C40.5 15.06 44.977 19.5 50.5 19.5C53.1142 19.5063 55.6269 18.4886 57.5 16.665" stroke="black" stroke-width="1.5" stroke-linecap="round" stroke-linejoin="round"/>
<path d="M11.4418 34.5497C11.3045 34.1188 11.1198 33.733 10.8878 33.392C10.6605 33.0464 10.3883 32.7528 10.071 32.5114C9.75379 32.2652 9.39157 32.0781 8.98438 31.9503C8.58191 31.8224 8.1392 31.7585 7.65625 31.7585C6.83712 31.7585 6.09848 31.9692 5.44034 32.3906C4.7822 32.812 4.26136 33.4299 3.87784 34.2443C3.49905 35.054 3.30966 36.0459 3.30966 37.2202C3.30966 38.3991 3.50142 39.3958 3.88494 40.2102C4.26847 41.0246 4.79403 41.6425 5.46165 42.0639C6.12926 42.4853 6.8892 42.696 7.74148 42.696C8.5322 42.696 9.22112 42.535 9.80824 42.2131C10.4001 41.8911 10.857 41.4366 11.179 40.8494C11.5057 40.2576 11.669 39.5616 11.669 38.7614L12.2372 38.8679H8.07528V37.0568H13.7926V38.7116C13.7926 39.9332 13.5322 40.9938 13.0114 41.8935C12.4953 42.7884 11.7803 43.4796 10.8665 43.9673C9.95739 44.455 8.91572 44.6989 7.74148 44.6989C6.42519 44.6989 5.26989 44.3958 4.27557 43.7898C3.28598 43.1837 2.5142 42.3243 1.96023 41.2116C1.40625 40.0942 1.12926 38.7685 1.12926 37.2344C1.12926 36.0743 1.29025 35.0327 1.61222 34.1094C1.93419 33.1861 2.38636 32.4025 2.96875 31.7585C3.55587 31.1098 4.24479 30.6151 5.03551 30.2741C5.83097 29.9285 6.69981 29.7557 7.64205 29.7557C8.42803 29.7557 9.15956 29.8717 9.83665 30.1037C10.5185 30.3357 11.1245 30.6648 11.6548 31.0909C12.1899 31.517 12.6326 32.0237 12.983 32.6108C13.3333 33.1932 13.5701 33.8395 13.6932 34.5497H11.4418ZM21.1097 44.7202C20.0349 44.7202 19.1093 44.4905 18.3327 44.0312C17.561 43.5672 16.9644 42.9162 16.543 42.0781C16.1263 41.2353 15.918 40.2481 15.918 39.1165C15.918 37.9991 16.1263 37.0142 16.543 36.1619C16.9644 35.3097 17.5515 34.6444 18.3043 34.1662C19.0619 33.688 19.9473 33.4489 20.9606 33.4489C21.5761 33.4489 22.1727 33.5507 22.7504 33.7543C23.328 33.9579 23.8465 34.2775 24.3058 34.7131C24.765 35.1487 25.1272 35.7145 25.3924 36.4105C25.6576 37.1018 25.7901 37.9422 25.7901 38.9318V39.6847H17.1183V38.0938H23.7092C23.7092 37.535 23.5955 37.0402 23.3683 36.6094C23.141 36.1738 22.8214 35.8305 22.4094 35.5795C22.0022 35.3286 21.524 35.2031 20.9748 35.2031C20.3782 35.2031 19.8574 35.3499 19.4123 35.6435C18.9719 35.9323 18.631 36.3111 18.3896 36.7798C18.1528 37.2438 18.0344 37.7481 18.0344 38.2926V39.5355C18.0344 40.2647 18.1623 40.8849 18.418 41.3963C18.6784 41.9077 19.0406 42.2983 19.5046 42.5682C19.9686 42.8333 20.5108 42.9659 21.131 42.9659C21.5335 42.9659 21.9005 42.9091 22.2319 42.7955C22.5633 42.6771 22.8498 42.5019 23.0913 42.2699C23.3327 42.0379 23.5174 41.7514 23.6452 41.4105L25.6552 41.7727C25.4942 42.3646 25.2054 42.883 24.7887 43.3281C24.3768 43.7685 23.8583 44.1117 23.2333 44.358C22.613 44.5994 21.9052 44.7202 21.1097 44.7202ZM32.7415 44.7202C31.7188 44.7202 30.8262 44.4858 30.0639 44.017C29.3016 43.5483 28.7098 42.8925 28.2884 42.0497C27.867 41.2069 27.6562 40.2221 27.6562 39.0952C27.6562 37.9635 27.867 36.974 28.2884 36.1264C28.7098 35.2789 29.3016 34.6207 30.0639 34.152C30.8262 33.6832 31.7188 33.4489 32.7415 33.4489C33.7642 33.4489 34.6567 33.6832 35.419 34.152C36.1813 34.6207 36.7732 35.2789 37.1946 36.1264C37.616 36.974 37.8267 37.9635 37.8267 39.0952C37.8267 40.2221 37.616 41.2069 37.1946 42.0497C36.7732 42.8925 36.1813 43.5483 35.419 44.017C34.6567 44.4858 33.7642 44.7202 32.7415 44.7202ZM32.7486 42.9375C33.4115 42.9375 33.9607 42.7623 34.3963 42.4119C34.8319 42.0616 35.1539 41.5952 35.3622 41.0128C35.5753 40.4304 35.6818 39.7888 35.6818 39.0881C35.6818 38.392 35.5753 37.7528 35.3622 37.1705C35.1539 36.5833 34.8319 36.1122 34.3963 35.7571C33.9607 35.402 33.4115 35.2244 32.7486 35.2244C32.081 35.2244 31.527 35.402 31.0866 35.7571C30.651 36.1122 30.3267 36.5833 30.1136 37.1705C29.9053 37.7528 29.8011 38.392 29.8011 39.0881C29.8011 39.7888 29.9053 40.4304 30.1136 41.0128C30.3267 41.5952 30.651 42.0616 31.0866 42.4119C31.527 42.7623 32.081 42.9375 32.7486 42.9375ZM44.771 48.8182C43.9045 48.8182 43.1587 48.7045 42.5337 48.4773C41.9135 48.25 41.4068 47.9493 41.0138 47.5753C40.6209 47.2012 40.3273 46.7917 40.1332 46.3466L41.9585 45.5938C42.0863 45.8021 42.2567 46.0223 42.4698 46.2543C42.6876 46.491 42.9812 46.6922 43.3505 46.858C43.7246 47.0237 44.2051 47.1065 44.7923 47.1065C45.5972 47.1065 46.2624 46.91 46.788 46.517C47.3136 46.1288 47.5763 45.5085 47.5763 44.6562V42.5114H47.4414C47.3136 42.7434 47.1289 43.0014 46.8874 43.2855C46.6507 43.5696 46.324 43.8158 45.9073 44.0241C45.4906 44.2325 44.9485 44.3366 44.2809 44.3366C43.4192 44.3366 42.6426 44.1354 41.9513 43.733C41.2648 43.3258 40.7203 42.7268 40.3178 41.9361C39.9201 41.1406 39.7212 40.1629 39.7212 39.0028C39.7212 37.8428 39.9177 36.8485 40.3107 36.0199C40.7085 35.1913 41.253 34.5568 41.9442 34.1165C42.6355 33.6714 43.4192 33.4489 44.2951 33.4489C44.9722 33.4489 45.5191 33.5625 45.9357 33.7898C46.3524 34.0123 46.6767 34.2727 46.9087 34.571C47.1455 34.8693 47.3278 35.1321 47.4556 35.3594H47.6119V33.5909H49.6928V44.7415C49.6928 45.679 49.475 46.4484 49.0394 47.0497C48.6038 47.651 48.0143 48.0961 47.271 48.3849C46.5323 48.6738 45.699 48.8182 44.771 48.8182ZM44.7496 42.5753C45.3604 42.5753 45.8765 42.4332 46.2979 42.1491C46.7241 41.8603 47.046 41.4484 47.2638 40.9134C47.4864 40.3736 47.5977 39.7273 47.5977 38.9744C47.5977 38.2405 47.4888 37.5942 47.271 37.0355C47.0531 36.4768 46.7335 36.0412 46.3121 35.7287C45.8907 35.4115 45.3699 35.2528 44.7496 35.2528C44.1104 35.2528 43.5778 35.4186 43.1516 35.75C42.7255 36.0767 42.4035 36.5218 42.1857 37.0852C41.9727 37.6487 41.8661 38.2784 41.8661 38.9744C41.8661 39.6894 41.975 40.3168 42.1928 40.8565C42.4106 41.3963 42.7326 41.8177 43.1587 42.1207C43.5896 42.4238 44.1199 42.5753 44.7496 42.5753ZM52.5408 44.5V33.5909H54.5934V35.3239H54.707C54.9059 34.7367 55.2563 34.2751 55.7582 33.9389C56.2648 33.598 56.8377 33.4276 57.4769 33.4276C57.6095 33.4276 57.7657 33.4323 57.9457 33.4418C58.1303 33.4512 58.2747 33.4631 58.3789 33.4773V35.5085C58.2937 35.4848 58.1422 35.4588 57.9244 35.4304C57.7066 35.3973 57.4888 35.3807 57.271 35.3807C56.7691 35.3807 56.3216 35.4872 55.9286 35.7003C55.5404 35.9086 55.2326 36.1998 55.0053 36.5739C54.7781 36.9432 54.6644 37.3646 54.6644 37.8381V44.5H52.5408ZM63.2937 44.7415C62.6024 44.7415 61.9774 44.6136 61.4187 44.358C60.86 44.0975 60.4173 43.7211 60.0906 43.2287C59.7686 42.7363 59.6076 42.1326 59.6076 41.4176C59.6076 40.8021 59.726 40.2955 59.9627 39.8977C60.1995 39.5 60.5191 39.1851 60.9215 38.9531C61.324 38.7211 61.7738 38.5459 62.271 38.4276C62.7681 38.3092 63.2747 38.2192 63.7908 38.1577C64.4442 38.0819 64.9746 38.0204 65.3817 37.973C65.7889 37.9209 66.0849 37.8381 66.2695 37.7244C66.4542 37.6108 66.5465 37.4261 66.5465 37.1705V37.1207C66.5465 36.5005 66.3713 36.0199 66.021 35.679C65.6753 35.3381 65.1592 35.1676 64.4727 35.1676C63.7577 35.1676 63.1942 35.3262 62.7823 35.6435C62.3751 35.956 62.0934 36.304 61.9371 36.6875L59.9414 36.233C60.1781 35.5701 60.5238 35.035 60.9783 34.6278C61.4376 34.2159 61.9656 33.9176 62.5621 33.733C63.1587 33.5436 63.7861 33.4489 64.4442 33.4489C64.8799 33.4489 65.3415 33.5009 65.8292 33.6051C66.3216 33.7045 66.7809 33.8892 67.207 34.1591C67.6379 34.429 67.9906 34.8149 68.2653 35.3168C68.5399 35.8139 68.6772 36.4602 68.6772 37.2557V44.5H66.6033V43.0085H66.5181C66.3808 43.2831 66.1748 43.553 65.9002 43.8182C65.6256 44.0833 65.2728 44.3035 64.842 44.4787C64.4111 44.6539 63.895 44.7415 63.2937 44.7415ZM63.7553 43.0369C64.3424 43.0369 64.8443 42.9209 65.261 42.6889C65.6824 42.4569 66.002 42.1539 66.2198 41.7798C66.4424 41.401 66.5536 40.9962 66.5536 40.5653V39.1591C66.4779 39.2348 66.3311 39.3059 66.1133 39.3722C65.9002 39.4337 65.6564 39.4882 65.3817 39.5355C65.1071 39.5781 64.8396 39.6184 64.5792 39.6562C64.3188 39.6894 64.101 39.7178 63.9258 39.7415C63.5138 39.7936 63.1374 39.8812 62.7965 40.0043C62.4603 40.1274 62.1905 40.3049 61.9869 40.5369C61.788 40.7642 61.6886 41.0672 61.6886 41.446C61.6886 41.9716 61.8827 42.3693 62.271 42.6392C62.6592 42.9044 63.154 43.0369 63.7553 43.0369ZM76.6974 33.5909V35.2955H70.5327V33.5909H76.6974ZM72.223 44.5V32.3267C72.223 31.6449 72.3722 31.0791 72.6705 30.6293C72.9688 30.1747 73.3641 29.8362 73.8565 29.6136C74.349 29.3864 74.884 29.2727 75.4616 29.2727C75.8878 29.2727 76.2524 29.3082 76.5554 29.3793C76.8584 29.4455 77.0833 29.5071 77.2301 29.5639L76.733 31.2827C76.6335 31.2543 76.5057 31.2211 76.3494 31.1832C76.1932 31.1406 76.0038 31.1193 75.7812 31.1193C75.2652 31.1193 74.8958 31.2472 74.6733 31.5028C74.4555 31.7585 74.3466 32.1278 74.3466 32.6108V44.5H72.223ZM78.8885 44.5V33.5909H81.0121V44.5H78.8885ZM79.9609 31.9077C79.5916 31.9077 79.2744 31.7846 79.0092 31.5384C78.7488 31.2874 78.6186 30.9891 78.6186 30.6435C78.6186 30.2931 78.7488 29.9948 79.0092 29.7486C79.2744 29.4976 79.5916 29.3722 79.9609 29.3722C80.3303 29.3722 80.6451 29.4976 80.9055 29.7486C81.1707 29.9948 81.3033 30.2931 81.3033 30.6435C81.3033 30.9891 81.1707 31.2874 80.9055 31.5384C80.6451 31.7846 80.3303 31.9077 79.9609 31.9077ZM87.0437 44.7415C86.3524 44.7415 85.7274 44.6136 85.1687 44.358C84.61 44.0975 84.1673 43.7211 83.8406 43.2287C83.5186 42.7363 83.3576 42.1326 83.3576 41.4176C83.3576 40.8021 83.476 40.2955 83.7127 39.8977C83.9495 39.5 84.2691 39.1851 84.6715 38.9531C85.074 38.7211 85.5238 38.5459 86.021 38.4276C86.5181 38.3092 87.0247 38.2192 87.5408 38.1577C88.1942 38.0819 88.7246 38.0204 89.1317 37.973C89.5389 37.9209 89.8349 37.8381 90.0195 37.7244C90.2042 37.6108 90.2965 37.4261 90.2965 37.1705V37.1207C90.2965 36.5005 90.1213 36.0199 89.771 35.679C89.4253 35.3381 88.9092 35.1676 88.2227 35.1676C87.5077 35.1676 86.9442 35.3262 86.5323 35.6435C86.1251 35.956 85.8434 36.304 85.6871 36.6875L83.6914 36.233C83.9281 35.5701 84.2738 35.035 84.7283 34.6278C85.1876 34.2159 85.7156 33.9176 86.3121 33.733C86.9087 33.5436 87.5361 33.4489 88.1942 33.4489C88.6299 33.4489 89.0915 33.5009 89.5792 33.6051C90.0716 33.7045 90.5309 33.8892 90.957 34.1591C91.3879 34.429 91.7406 34.8149 92.0153 35.3168C92.2899 35.8139 92.4272 36.4602 92.4272 37.2557V44.5H90.3533V43.0085H90.2681C90.1308 43.2831 89.9248 43.553 89.6502 43.8182C89.3756 44.0833 89.0228 44.3035 88.592 44.4787C88.1611 44.6539 87.645 44.7415 87.0437 44.7415ZM87.5053 43.0369C88.0924 43.0369 88.5943 42.9209 89.011 42.6889C89.4324 42.4569 89.752 42.1539 89.9698 41.7798C90.1924 41.401 90.3036 40.9962 90.3036 40.5653V39.1591C90.2279 39.2348 90.0811 39.3059 89.8633 39.3722C89.6502 39.4337 89.4064 39.4882 89.1317 39.5355C88.8571 39.5781 88.5896 39.6184 88.3292 39.6562C88.0688 39.6894 87.851 39.7178 87.6758 39.7415C87.2638 39.7936 86.8874 39.8812 86.5465 40.0043C86.2103 40.1274 85.9405 40.3049 85.7369 40.5369C85.538 40.7642 85.4386 41.0672 85.4386 41.446C85.4386 41.9716 85.6327 42.3693 86.021 42.6392C86.4092 42.9044 86.904 43.0369 87.5053 43.0369Z" fill="black"/>
</svg>
