<svg width="78" height="44" viewBox="0 0 78 44" fill="none" xmlns="http://www.w3.org/2000/svg">
<path d="M40 16.006L47 15.959V5.992L41.83 5.999L40.016 7.813L40 16.006ZM38 7.813L36.179 6.038L31 6.003V15.959L38 16.006V7.813ZM37 4.043L39 6L41 4L46.997 3.992C47.2596 3.9916 47.5198 4.04295 47.7626 4.14309C48.0054 4.24324 48.2261 4.39022 48.4121 4.57566C48.5981 4.7611 48.7457 4.98136 48.8466 5.22386C48.9475 5.46636 48.9996 5.72635 49 5.989V15.959C49 16.487 48.7912 16.9936 48.4192 17.3683C48.0471 17.743 47.542 17.9553 47.014 17.959L41 18L39.004 20L37 18L30.986 17.959C30.458 17.9553 29.9529 17.743 29.5808 17.3683C29.2088 16.9936 29 16.487 29 15.959V6.003C29 5.47257 29.2107 4.96386 29.5858 4.58879C29.9609 4.21371 30.4696 4.003 31 4.003L37 4.043Z" fill="black"/>
<path d="M1.59801 43V28.4545H3.79261V34.7756H11.044V28.4545H13.2457V43H11.044V36.6577H3.79261V43H1.59801ZM16.2713 43V32.0909H18.3949V43H16.2713ZM17.3438 30.4077C16.9744 30.4077 16.6572 30.2846 16.392 30.0384C16.1316 29.7874 16.0014 29.4891 16.0014 29.1435C16.0014 28.7931 16.1316 28.4948 16.392 28.2486C16.6572 27.9976 16.9744 27.8722 17.3438 27.8722C17.7131 27.8722 18.0279 27.9976 18.2884 28.2486C18.5535 28.4948 18.6861 28.7931 18.6861 29.1435C18.6861 29.4891 18.5535 29.7874 18.2884 30.0384C18.0279 30.2846 17.7131 30.4077 17.3438 30.4077ZM29.4265 34.7543L27.5018 35.0952C27.4213 34.849 27.2934 34.6146 27.1183 34.392C26.9478 34.1695 26.7158 33.9872 26.4222 33.8452C26.1287 33.7031 25.7617 33.6321 25.3214 33.6321C24.7201 33.6321 24.2182 33.767 23.8157 34.0369C23.4132 34.3021 23.212 34.6454 23.212 35.0668C23.212 35.4313 23.3469 35.7249 23.6168 35.9474C23.8867 36.17 24.3223 36.3523 24.9237 36.4943L26.6566 36.892C27.6604 37.1241 28.4085 37.4815 28.9009 37.9645C29.3933 38.4474 29.6396 39.0748 29.6396 39.8466C29.6396 40.5 29.4502 41.0824 29.0714 41.5938C28.6973 42.1004 28.1741 42.4981 27.5018 42.7869C26.8342 43.0758 26.06 43.2202 25.1793 43.2202C23.9577 43.2202 22.9611 42.9598 22.1893 42.4389C21.4175 41.9134 20.944 41.1676 20.7688 40.2017L22.8214 39.8892C22.9492 40.4242 23.212 40.8291 23.6097 41.1037C24.0075 41.3736 24.5259 41.5085 25.1651 41.5085C25.8612 41.5085 26.4175 41.3641 26.8342 41.0753C27.2508 40.7817 27.4592 40.4242 27.4592 40.0028C27.4592 39.6619 27.3313 39.3755 27.0756 39.1435C26.8247 38.9115 26.4388 38.7363 25.918 38.6179L24.0714 38.2131C23.0534 37.9811 22.3005 37.6117 21.8129 37.1051C21.3299 36.5985 21.0884 35.9569 21.0884 35.1804C21.0884 34.5365 21.2683 33.973 21.6282 33.4901C21.988 33.0071 22.4852 32.6307 23.1197 32.3608C23.7541 32.0862 24.4809 31.9489 25.3001 31.9489C26.479 31.9489 27.4071 32.2045 28.0842 32.7159C28.7612 33.2225 29.2087 33.902 29.4265 34.7543ZM37.0668 32.0909V33.7955H31.108V32.0909H37.0668ZM32.706 29.4773H34.8295V39.7969C34.8295 40.2088 34.8911 40.5189 35.0142 40.7273C35.1373 40.9309 35.2959 41.0705 35.4901 41.1463C35.6889 41.2173 35.9044 41.2528 36.1364 41.2528C36.3068 41.2528 36.456 41.241 36.5838 41.2173C36.7116 41.1937 36.8111 41.1747 36.8821 41.1605L37.2656 42.9148C37.1425 42.9621 36.9673 43.0095 36.7401 43.0568C36.5128 43.1089 36.2287 43.1373 35.8878 43.142C35.3291 43.1515 34.8082 43.0521 34.3253 42.8438C33.8423 42.6354 33.4517 42.3134 33.1534 41.8778C32.8551 41.4422 32.706 40.8954 32.706 40.2372V29.4773ZM43.8938 43.2202C42.8711 43.2202 41.9786 42.9858 41.2163 42.517C40.454 42.0483 39.8621 41.3925 39.4407 40.5497C39.0193 39.7069 38.8086 38.7221 38.8086 37.5952C38.8086 36.4635 39.0193 35.474 39.4407 34.6264C39.8621 33.7789 40.454 33.1207 41.2163 32.652C41.9786 32.1832 42.8711 31.9489 43.8938 31.9489C44.9165 31.9489 45.8091 32.1832 46.5714 32.652C47.3337 33.1207 47.9255 33.7789 48.3469 34.6264C48.7683 35.474 48.979 36.4635 48.979 37.5952C48.979 38.7221 48.7683 39.7069 48.3469 40.5497C47.9255 41.3925 47.3337 42.0483 46.5714 42.517C45.8091 42.9858 44.9165 43.2202 43.8938 43.2202ZM43.9009 41.4375C44.5638 41.4375 45.113 41.2623 45.5487 40.9119C45.9843 40.5616 46.3062 40.0952 46.5146 39.5128C46.7276 38.9304 46.8342 38.2888 46.8342 37.5881C46.8342 36.892 46.7276 36.2528 46.5146 35.6705C46.3062 35.0833 45.9843 34.6122 45.5487 34.2571C45.113 33.902 44.5638 33.7244 43.9009 33.7244C43.2333 33.7244 42.6793 33.902 42.239 34.2571C41.8034 34.6122 41.479 35.0833 41.266 35.6705C41.0576 36.2528 40.9535 36.892 40.9535 37.5881C40.9535 38.2888 41.0576 38.9304 41.266 39.5128C41.479 40.0952 41.8034 40.5616 42.239 40.9119C42.6793 41.2623 43.2333 41.4375 43.9009 41.4375ZM43.0202 30.6349L44.6822 27.3608H46.9194L44.7177 30.6349H43.0202ZM51.3494 43V32.0909H53.402V33.8239H53.5156C53.7145 33.2367 54.0649 32.7751 54.5668 32.4389C55.0734 32.098 55.6463 31.9276 56.2855 31.9276C56.4181 31.9276 56.5743 31.9323 56.7543 31.9418C56.9389 31.9512 57.0833 31.9631 57.1875 31.9773V34.0085C57.1023 33.9848 56.9508 33.9588 56.733 33.9304C56.5152 33.8973 56.2973 33.8807 56.0795 33.8807C55.5777 33.8807 55.1302 33.9872 54.7372 34.2003C54.349 34.4086 54.0412 34.6998 53.8139 35.0739C53.5866 35.4432 53.473 35.8646 53.473 36.3381V43H51.3494ZM59.0252 43V32.0909H61.1488V43H59.0252ZM60.0977 30.4077C59.7283 30.4077 59.4111 30.2846 59.146 30.0384C58.8855 29.7874 58.7553 29.4891 58.7553 29.1435C58.7553 28.7931 58.8855 28.4948 59.146 28.2486C59.4111 27.9976 59.7283 27.8722 60.0977 27.8722C60.467 27.8722 60.7818 27.9976 61.0423 28.2486C61.3074 28.4948 61.44 28.7931 61.44 29.1435C61.44 29.4891 61.3074 29.7874 61.0423 30.0384C60.7818 30.2846 60.467 30.4077 60.0977 30.4077ZM67.1804 43.2415C66.4891 43.2415 65.8641 43.1136 65.3054 42.858C64.7467 42.5975 64.304 42.2211 63.9773 41.7287C63.6553 41.2363 63.4943 40.6326 63.4943 39.9176C63.4943 39.3021 63.6127 38.7955 63.8494 38.3977C64.0862 38 64.4058 37.6851 64.8082 37.4531C65.2107 37.2211 65.6605 37.0459 66.1577 36.9276C66.6548 36.8092 67.1615 36.7192 67.6776 36.6577C68.331 36.5819 68.8613 36.5204 69.2685 36.473C69.6757 36.4209 69.9716 36.3381 70.1562 36.2244C70.3409 36.1108 70.4332 35.9261 70.4332 35.6705V35.6207C70.4332 35.0005 70.258 34.5199 69.9077 34.179C69.562 33.8381 69.0459 33.6676 68.3594 33.6676C67.6444 33.6676 67.081 33.8262 66.669 34.1435C66.2618 34.456 65.9801 34.804 65.8239 35.1875L63.8281 34.733C64.0649 34.0701 64.4105 33.535 64.8651 33.1278C65.3243 32.7159 65.8523 32.4176 66.4489 32.233C67.0455 32.0436 67.6728 31.9489 68.331 31.9489C68.7666 31.9489 69.2282 32.0009 69.7159 32.1051C70.2083 32.2045 70.6676 32.3892 71.0938 32.6591C71.5246 32.929 71.8774 33.3149 72.152 33.8168C72.4266 34.3139 72.5639 34.9602 72.5639 35.7557V43H70.4901V41.5085H70.4048C70.2675 41.7831 70.0616 42.053 69.7869 42.3182C69.5123 42.5833 69.1596 42.8035 68.7287 42.9787C68.2978 43.1539 67.7817 43.2415 67.1804 43.2415ZM67.642 41.5369C68.2292 41.5369 68.7311 41.4209 69.1477 41.1889C69.5691 40.9569 69.8887 40.6539 70.1065 40.2798C70.3291 39.901 70.4403 39.4962 70.4403 39.0653V37.6591C70.3646 37.7348 70.2178 37.8059 70 37.8722C69.7869 37.9337 69.5431 37.9882 69.2685 38.0355C68.9938 38.0781 68.7263 38.1184 68.4659 38.1562C68.2055 38.1894 67.9877 38.2178 67.8125 38.2415C67.4006 38.2936 67.0241 38.3812 66.6832 38.5043C66.3471 38.6274 66.0772 38.8049 65.8736 39.0369C65.6747 39.2642 65.5753 39.5672 65.5753 39.946C65.5753 40.4716 65.7694 40.8693 66.1577 41.1392C66.5459 41.4044 67.0407 41.5369 67.642 41.5369Z" fill="black"/>
</svg>
