<svg width="117" height="44" viewBox="0 0 117 44" fill="none" xmlns="http://www.w3.org/2000/svg">
<path d="M49.929 18.366H55.929M61.5 8.707H67.5M61.5 4.317H67.5M49.5 6.512H52.929M52.929 6.512H56.357M52.929 6.512V3M52.929 6.512V10.024M62.1 21L64.525 18.516M64.525 18.516L66.949 16.033M64.525 18.516L62.1 16.033M64.525 18.516L66.949 21" stroke="black" stroke-width="1.5" stroke-linecap="round" stroke-linejoin="round"/>
<path d="M1.59801 28.4545H4.26136L8.89205 39.7614H9.0625L13.6932 28.4545H16.3565V43H14.2685V32.4744H14.1335L9.84375 42.9787H8.1108L3.82102 32.4673H3.68608V43H1.59801V28.4545ZM22.5515 43.2415C21.8602 43.2415 21.2352 43.1136 20.6765 42.858C20.1178 42.5975 19.6751 42.2211 19.3484 41.7287C19.0264 41.2363 18.8654 40.6326 18.8654 39.9176C18.8654 39.3021 18.9838 38.7955 19.2205 38.3977C19.4573 38 19.7769 37.6851 20.1793 37.4531C20.5818 37.2211 21.0316 37.0459 21.5288 36.9276C22.0259 36.8092 22.5326 36.7192 23.0487 36.6577C23.7021 36.5819 24.2324 36.5204 24.6396 36.473C25.0468 36.4209 25.3427 36.3381 25.5273 36.2244C25.712 36.1108 25.8043 35.9261 25.8043 35.6705V35.6207C25.8043 35.0005 25.6291 34.5199 25.2788 34.179C24.9331 33.8381 24.417 33.6676 23.7305 33.6676C23.0155 33.6676 22.4521 33.8262 22.0401 34.1435C21.6329 34.456 21.3512 34.804 21.195 35.1875L19.1992 34.733C19.436 34.0701 19.7816 33.535 20.2362 33.1278C20.6954 32.7159 21.2234 32.4176 21.82 32.233C22.4165 32.0436 23.0439 31.9489 23.7021 31.9489C24.1377 31.9489 24.5993 32.0009 25.087 32.1051C25.5794 32.2045 26.0387 32.3892 26.4648 32.6591C26.8957 32.929 27.2485 33.3149 27.5231 33.8168C27.7977 34.3139 27.935 34.9602 27.935 35.7557V43H25.8612V41.5085H25.7759C25.6386 41.7831 25.4326 42.053 25.158 42.3182C24.8834 42.5833 24.5307 42.8035 24.0998 42.9787C23.6689 43.1539 23.1528 43.2415 22.5515 43.2415ZM23.0131 41.5369C23.6003 41.5369 24.1022 41.4209 24.5188 41.1889C24.9402 40.9569 25.2598 40.6539 25.4776 40.2798C25.7002 39.901 25.8114 39.4962 25.8114 39.0653V37.6591C25.7357 37.7348 25.5889 37.8059 25.3711 37.8722C25.158 37.9337 24.9142 37.9882 24.6396 38.0355C24.3649 38.0781 24.0974 38.1184 23.837 38.1562C23.5766 38.1894 23.3588 38.2178 23.1836 38.2415C22.7717 38.2936 22.3952 38.3812 22.0543 38.5043C21.7182 38.6274 21.4483 38.8049 21.2447 39.0369C21.0458 39.2642 20.9464 39.5672 20.9464 39.946C20.9464 40.4716 21.1405 40.8693 21.5288 41.1392C21.917 41.4044 22.4118 41.5369 23.0131 41.5369ZM35.8558 32.0909V33.7955H29.897V32.0909H35.8558ZM31.495 29.4773H33.6186V39.7969C33.6186 40.2088 33.6802 40.5189 33.8033 40.7273C33.9264 40.9309 34.085 41.0705 34.2791 41.1463C34.478 41.2173 34.6934 41.2528 34.9254 41.2528C35.0959 41.2528 35.245 41.241 35.3729 41.2173C35.5007 41.1937 35.6001 41.1747 35.6712 41.1605L36.0547 42.9148C35.9316 42.9621 35.7564 43.0095 35.5291 43.0568C35.3018 43.1089 35.0178 43.1373 34.6768 43.142C34.1181 43.1515 33.5973 43.0521 33.1143 42.8438C32.6314 42.6354 32.2408 42.3134 31.9425 41.8778C31.6442 41.4422 31.495 40.8954 31.495 40.2372V29.4773ZM42.7894 43.2202C41.7146 43.2202 40.7889 42.9905 40.0124 42.5312C39.2406 42.0672 38.6441 41.4162 38.2227 40.5781C37.806 39.7353 37.5977 38.7481 37.5977 37.6165C37.5977 36.4991 37.806 35.5142 38.2227 34.6619C38.6441 33.8097 39.2312 33.1444 39.984 32.6662C40.7416 32.188 41.627 31.9489 42.6403 31.9489C43.2558 31.9489 43.8524 32.0507 44.43 32.2543C45.0077 32.4579 45.5262 32.7775 45.9854 33.2131C46.4447 33.6487 46.8069 34.2145 47.0721 34.9105C47.3372 35.6018 47.4698 36.4422 47.4698 37.4318V38.1847H38.7979V36.5938H45.3888C45.3888 36.035 45.2752 35.5402 45.0479 35.1094C44.8207 34.6738 44.5011 34.3305 44.0891 34.0795C43.6819 33.8286 43.2037 33.7031 42.6545 33.7031C42.0579 33.7031 41.5371 33.8499 41.092 34.1435C40.6516 34.4323 40.3107 34.8111 40.0692 35.2798C39.8325 35.7438 39.7141 36.2481 39.7141 36.7926V38.0355C39.7141 38.7647 39.842 39.3849 40.0977 39.8963C40.3581 40.4077 40.7203 40.7983 41.1843 41.0682C41.6483 41.3333 42.1905 41.4659 42.8107 41.4659C43.2132 41.4659 43.5801 41.4091 43.9116 41.2955C44.243 41.1771 44.5295 41.0019 44.771 40.7699C45.0124 40.5379 45.1971 40.2514 45.3249 39.9105L47.3349 40.2727C47.1739 40.8646 46.8851 41.383 46.4684 41.8281C46.0565 42.2685 45.538 42.6117 44.913 42.858C44.2927 43.0994 43.5849 43.2202 42.7894 43.2202ZM49.826 43V32.0909H51.8643V33.8665H51.9993C52.2266 33.2652 52.5982 32.7964 53.1143 32.4602C53.6304 32.1193 54.2483 31.9489 54.968 31.9489C55.6972 31.9489 56.308 32.1193 56.8004 32.4602C57.2976 32.8011 57.6645 33.2699 57.9013 33.8665H58.0149C58.2753 33.2841 58.6896 32.8201 59.2578 32.4744C59.826 32.1241 60.5031 31.9489 61.2891 31.9489C62.2786 31.9489 63.0859 32.259 63.7109 32.8793C64.3407 33.4995 64.6555 34.4347 64.6555 35.6847V43H62.532V35.8835C62.532 35.1449 62.3307 34.6098 61.9283 34.2784C61.5258 33.947 61.0452 33.7812 60.4865 33.7812C59.7952 33.7812 59.2578 33.9943 58.8743 34.4205C58.4908 34.8419 58.299 35.384 58.299 36.0469V43H56.1825V35.7486C56.1825 35.1567 55.9979 34.6809 55.6286 34.321C55.2592 33.9612 54.7786 33.7812 54.1868 33.7812C53.7843 33.7812 53.4126 33.8878 53.0717 34.1009C52.7356 34.3092 52.4633 34.6004 52.255 34.9744C52.0514 35.3485 51.9496 35.7817 51.9496 36.2741V43H49.826ZM70.6765 43.2415C69.9852 43.2415 69.3602 43.1136 68.8015 42.858C68.2428 42.5975 67.8001 42.2211 67.4734 41.7287C67.1514 41.2363 66.9904 40.6326 66.9904 39.9176C66.9904 39.3021 67.1088 38.7955 67.3455 38.3977C67.5823 38 67.9019 37.6851 68.3043 37.4531C68.7068 37.2211 69.1566 37.0459 69.6538 36.9276C70.1509 36.8092 70.6576 36.7192 71.1737 36.6577C71.8271 36.5819 72.3574 36.5204 72.7646 36.473C73.1718 36.4209 73.4677 36.3381 73.6523 36.2244C73.837 36.1108 73.9293 35.9261 73.9293 35.6705V35.6207C73.9293 35.0005 73.7541 34.5199 73.4038 34.179C73.0581 33.8381 72.542 33.6676 71.8555 33.6676C71.1405 33.6676 70.5771 33.8262 70.1651 34.1435C69.7579 34.456 69.4762 34.804 69.32 35.1875L67.3242 34.733C67.561 34.0701 67.9066 33.535 68.3612 33.1278C68.8204 32.7159 69.3484 32.4176 69.945 32.233C70.5415 32.0436 71.1689 31.9489 71.8271 31.9489C72.2627 31.9489 72.7243 32.0009 73.212 32.1051C73.7044 32.2045 74.1637 32.3892 74.5898 32.6591C75.0207 32.929 75.3735 33.3149 75.6481 33.8168C75.9227 34.3139 76.06 34.9602 76.06 35.7557V43H73.9862V41.5085H73.9009C73.7636 41.7831 73.5576 42.053 73.283 42.3182C73.0084 42.5833 72.6557 42.8035 72.2248 42.9787C71.7939 43.1539 71.2778 43.2415 70.6765 43.2415ZM71.1381 41.5369C71.7253 41.5369 72.2272 41.4209 72.6438 41.1889C73.0652 40.9569 73.3848 40.6539 73.6026 40.2798C73.8252 39.901 73.9364 39.4962 73.9364 39.0653V37.6591C73.8607 37.7348 73.7139 37.8059 73.4961 37.8722C73.283 37.9337 73.0392 37.9882 72.7646 38.0355C72.4899 38.0781 72.2224 38.1184 71.962 38.1562C71.7016 38.1894 71.4838 38.2178 71.3086 38.2415C70.8967 38.2936 70.5202 38.3812 70.1793 38.5043C69.8432 38.6274 69.5733 38.8049 69.3697 39.0369C69.1708 39.2642 69.0714 39.5672 69.0714 39.946C69.0714 40.4716 69.2655 40.8693 69.6538 41.1392C70.042 41.4044 70.5368 41.5369 71.1381 41.5369ZM71.06 30.6349L72.7219 27.3608H74.9592L72.7575 30.6349H71.06ZM83.9808 32.0909V33.7955H78.022V32.0909H83.9808ZM79.62 29.4773H81.7436V39.7969C81.7436 40.2088 81.8052 40.5189 81.9283 40.7273C82.0514 40.9309 82.21 41.0705 82.4041 41.1463C82.603 41.2173 82.8184 41.2528 83.0504 41.2528C83.2209 41.2528 83.37 41.241 83.4979 41.2173C83.6257 41.1937 83.7251 41.1747 83.7962 41.1605L84.1797 42.9148C84.0566 42.9621 83.8814 43.0095 83.6541 43.0568C83.4268 43.1089 83.1428 43.1373 82.8018 43.142C82.2431 43.1515 81.7223 43.0521 81.2393 42.8438C80.7564 42.6354 80.3658 42.3134 80.0675 41.8778C79.7692 41.4422 79.62 40.8954 79.62 40.2372V29.4773ZM86.3299 43V32.0909H88.4535V43H86.3299ZM87.4023 30.4077C87.033 30.4077 86.7158 30.2846 86.4506 30.0384C86.1902 29.7874 86.06 29.4891 86.06 29.1435C86.06 28.7931 86.1902 28.4948 86.4506 28.2486C86.7158 27.9976 87.033 27.8722 87.4023 27.8722C87.7717 27.8722 88.0865 27.9976 88.3469 28.2486C88.6121 28.4948 88.7447 28.7931 88.7447 29.1435C88.7447 29.4891 88.6121 29.7874 88.3469 30.0384C88.0865 30.2846 87.7717 30.4077 87.4023 30.4077ZM95.9055 43.2202C94.8497 43.2202 93.9406 42.9811 93.1783 42.5028C92.4207 42.0199 91.8383 41.3546 91.4311 40.5071C91.0239 39.6596 90.8203 38.6889 90.8203 37.5952C90.8203 36.4872 91.0286 35.5095 91.4453 34.6619C91.862 33.8097 92.4491 33.1444 93.2067 32.6662C93.9643 32.188 94.8568 31.9489 95.8842 31.9489C96.7128 31.9489 97.4515 32.1027 98.1001 32.4105C98.7488 32.7135 99.272 33.1397 99.6697 33.6889C100.072 34.2382 100.311 34.8797 100.387 35.6136H98.3203C98.2067 35.1023 97.9463 34.6619 97.5391 34.2926C97.1366 33.9233 96.5968 33.7386 95.9197 33.7386C95.3279 33.7386 94.8094 33.8949 94.3643 34.2074C93.924 34.5152 93.5807 34.9555 93.3345 35.5284C93.0883 36.0966 92.9652 36.7689 92.9652 37.5455C92.9652 38.3409 93.0859 39.0275 93.3274 39.6051C93.5689 40.1828 93.9098 40.6302 94.3501 40.9474C94.7952 41.2647 95.3184 41.4233 95.9197 41.4233C96.3222 41.4233 96.6868 41.3499 97.0135 41.2031C97.3449 41.0516 97.6219 40.8362 97.8445 40.5568C98.0717 40.2775 98.2304 39.9413 98.3203 39.5483H100.387C100.311 40.2538 100.082 40.8835 99.6982 41.4375C99.3146 41.9915 98.8009 42.4271 98.157 42.7443C97.5178 43.0616 96.7673 43.2202 95.9055 43.2202ZM105.833 43.2415C105.141 43.2415 104.516 43.1136 103.958 42.858C103.399 42.5975 102.956 42.2211 102.63 41.7287C102.308 41.2363 102.147 40.6326 102.147 39.9176C102.147 39.3021 102.265 38.7955 102.502 38.3977C102.739 38 103.058 37.6851 103.461 37.4531C103.863 37.2211 104.313 37.0459 104.81 36.9276C105.307 36.8092 105.814 36.7192 106.33 36.6577C106.983 36.5819 107.514 36.5204 107.921 36.473C108.328 36.4209 108.624 36.3381 108.809 36.2244C108.993 36.1108 109.086 35.9261 109.086 35.6705V35.6207C109.086 35.0005 108.91 34.5199 108.56 34.179C108.214 33.8381 107.698 33.6676 107.012 33.6676C106.297 33.6676 105.733 33.8262 105.321 34.1435C104.914 34.456 104.632 34.804 104.476 35.1875L102.48 34.733C102.717 34.0701 103.063 33.535 103.517 33.1278C103.977 32.7159 104.505 32.4176 105.101 32.233C105.698 32.0436 106.325 31.9489 106.983 31.9489C107.419 31.9489 107.881 32.0009 108.368 32.1051C108.861 32.2045 109.32 32.3892 109.746 32.6591C110.177 32.929 110.53 33.3149 110.804 33.8168C111.079 34.3139 111.216 34.9602 111.216 35.7557V43H109.142V41.5085H109.057C108.92 41.7831 108.714 42.053 108.439 42.3182C108.165 42.5833 107.812 42.8035 107.381 42.9787C106.95 43.1539 106.434 43.2415 105.833 43.2415ZM106.294 41.5369C106.882 41.5369 107.383 41.4209 107.8 41.1889C108.221 40.9569 108.541 40.6539 108.759 40.2798C108.981 39.901 109.093 39.4962 109.093 39.0653V37.6591C109.017 37.7348 108.87 37.8059 108.652 37.8722C108.439 37.9337 108.195 37.9882 107.921 38.0355C107.646 38.0781 107.379 38.1184 107.118 38.1562C106.858 38.1894 106.64 38.2178 106.465 38.2415C106.053 38.2936 105.676 38.3812 105.336 38.5043C104.999 38.6274 104.73 38.8049 104.526 39.0369C104.327 39.2642 104.228 39.5672 104.228 39.946C104.228 40.4716 104.422 40.8693 104.81 41.1392C105.198 41.4044 105.693 41.5369 106.294 41.5369Z" fill="black"/>
</svg>
