<svg width="50" height="50" viewBox="0 0 50 50" fill="none" xmlns="http://www.w3.org/2000/svg">
<path d="M39.5834 43.75V6.25001C39.5822 5.87033 39.4775 5.49818 39.2806 5.1736C39.0836 4.84901 38.8018 4.58429 38.4656 4.40793C38.1294 4.23157 37.7514 4.15024 37.3724 4.17271C36.9934 4.19518 36.6277 4.32058 36.3147 4.53542L9.23135 23.2854C8.10843 24.0625 8.10843 25.9333 9.23135 26.7125L36.3147 45.4625C36.6271 45.6795 36.9929 45.8068 37.3726 45.8305C37.7522 45.8542 38.1311 45.7734 38.468 45.5969C38.805 45.4203 39.0871 45.1548 39.2837 44.8292C39.4804 44.5036 39.584 44.1304 39.5834 43.75Z" fill="white"/>
</svg>
