<svg width="73" height="44" viewBox="0 0 73 44" fill="none" xmlns="http://www.w3.org/2000/svg">
<path d="M29.5 21C28.65 21 28.046 20.621 27.688 19.863C27.33 19.105 27.4173 18.4007 27.95 17.75L33.5 11V5H32.5C32.2167 5 31.9793 4.904 31.788 4.712C31.5967 4.52 31.5007 4.28267 31.5 4C31.4993 3.71733 31.5953 3.48 31.788 3.288C31.9807 3.096 32.218 3 32.5 3H40.5C40.7833 3 41.021 3.096 41.213 3.288C41.405 3.48 41.5007 3.71733 41.5 4C41.4993 4.28267 41.4033 4.52033 41.212 4.713C41.0207 4.90567 40.7833 5.00133 40.5 5H39.5V11L45.05 17.75C45.5833 18.4 45.671 19.1043 45.313 19.863C44.955 20.6217 44.3507 21.0007 43.5 21H29.5Z" fill="black"/>
<path d="M13.679 33.1847H11.4631C11.3778 32.7112 11.2192 32.2945 10.9872 31.9347C10.7552 31.5748 10.4711 31.2694 10.1349 31.0185C9.79877 30.7675 9.42235 30.5781 9.00568 30.4503C8.59375 30.3224 8.15578 30.2585 7.69176 30.2585C6.85369 30.2585 6.10322 30.4692 5.44034 30.8906C4.7822 31.312 4.26136 31.9299 3.87784 32.7443C3.49905 33.5587 3.30966 34.553 3.30966 35.7273C3.30966 36.911 3.49905 37.91 3.87784 38.7244C4.26136 39.5388 4.78456 40.1544 5.44744 40.571C6.11032 40.9877 6.85606 41.196 7.68466 41.196C8.14394 41.196 8.57955 41.1345 8.99148 41.0114C9.40814 40.8835 9.78456 40.6965 10.1207 40.4503C10.4569 40.2041 10.741 39.9034 10.973 39.5483C11.2098 39.1884 11.3731 38.7765 11.4631 38.3125L13.679 38.3196C13.5606 39.0346 13.331 39.6927 12.9901 40.294C12.6539 40.8906 12.2206 41.4067 11.6903 41.8423C11.1648 42.2732 10.5634 42.607 9.88636 42.8438C9.20928 43.0805 8.47064 43.1989 7.67045 43.1989C6.41098 43.1989 5.28883 42.9006 4.30398 42.304C3.31913 41.7027 2.54261 40.8433 1.97443 39.7259C1.41098 38.6084 1.12926 37.2756 1.12926 35.7273C1.12926 34.1742 1.41335 32.8414 1.98153 31.7287C2.54972 30.6113 3.32623 29.7543 4.31108 29.1577C5.29593 28.5563 6.41572 28.2557 7.67045 28.2557C8.44223 28.2557 9.16193 28.367 9.82955 28.5895C10.5019 28.8073 11.1056 29.1293 11.6406 29.5554C12.1757 29.9768 12.6184 30.4929 12.9688 31.1037C13.3191 31.7098 13.5559 32.4034 13.679 33.1847ZM16.1346 43V32.0909H18.2582V43H16.1346ZM17.207 30.4077C16.8377 30.4077 16.5205 30.2846 16.2553 30.0384C15.9949 29.7874 15.8647 29.4891 15.8647 29.1435C15.8647 28.7931 15.9949 28.4948 16.2553 28.2486C16.5205 27.9976 16.8377 27.8722 17.207 27.8722C17.5763 27.8722 17.8912 27.9976 18.1516 28.2486C18.4168 28.4948 18.5494 28.7931 18.5494 29.1435C18.5494 29.4891 18.4168 29.7874 18.1516 30.0384C17.8912 30.2846 17.5763 30.4077 17.207 30.4077ZM25.8168 43.2202C24.742 43.2202 23.8163 42.9905 23.0398 42.5312C22.268 42.0672 21.6714 41.4162 21.25 40.5781C20.8333 39.7353 20.625 38.7481 20.625 37.6165C20.625 36.4991 20.8333 35.5142 21.25 34.6619C21.6714 33.8097 22.2585 33.1444 23.0114 32.6662C23.7689 32.188 24.6544 31.9489 25.6676 31.9489C26.2831 31.9489 26.8797 32.0507 27.4574 32.2543C28.035 32.4579 28.5535 32.7775 29.0128 33.2131C29.4721 33.6487 29.8343 34.2145 30.0994 34.9105C30.3646 35.6018 30.4972 36.4422 30.4972 37.4318V38.1847H21.8253V36.5938H28.4162C28.4162 36.035 28.3026 35.5402 28.0753 35.1094C27.848 34.6738 27.5284 34.3305 27.1165 34.0795C26.7093 33.8286 26.2311 33.7031 25.6818 33.7031C25.0852 33.7031 24.5644 33.8499 24.1193 34.1435C23.679 34.4323 23.3381 34.8111 23.0966 35.2798C22.8598 35.7438 22.7415 36.2481 22.7415 36.7926V38.0355C22.7415 38.7647 22.8693 39.3849 23.125 39.8963C23.3854 40.4077 23.7476 40.7983 24.2116 41.0682C24.6757 41.3333 25.2178 41.4659 25.8381 41.4659C26.2405 41.4659 26.6075 41.4091 26.9389 41.2955C27.2704 41.1771 27.5568 41.0019 27.7983 40.7699C28.0398 40.5379 28.2244 40.2514 28.3523 39.9105L30.3622 40.2727C30.2012 40.8646 29.9124 41.383 29.4957 41.8281C29.0838 42.2685 28.5653 42.6117 27.9403 42.858C27.3201 43.0994 26.6122 43.2202 25.8168 43.2202ZM27.0455 30.7841L25.5895 28.8807L24.1264 30.7841H22.2088V30.6776L24.7017 27.6662H26.4702L28.9702 30.6776V30.7841H27.0455ZM34.9769 36.5227V43H32.8533V32.0909H34.8917V33.8665H35.0266C35.2776 33.2888 35.6706 32.8248 36.2056 32.4744C36.7454 32.1241 37.4248 31.9489 38.244 31.9489C38.9873 31.9489 39.6384 32.1051 40.1971 32.4176C40.7558 32.7254 41.189 33.1847 41.4968 33.7955C41.8046 34.4062 41.9585 35.1615 41.9585 36.0611V43H39.8349V36.3168C39.8349 35.526 39.6289 34.9081 39.217 34.4631C38.805 34.0133 38.2392 33.7884 37.5195 33.7884C37.0271 33.7884 36.5891 33.8949 36.2056 34.108C35.8268 34.321 35.5262 34.6335 35.3036 35.0455C35.0858 35.4527 34.9769 35.9451 34.9769 36.5227ZM49.4016 43.2202C48.3458 43.2202 47.4367 42.9811 46.6744 42.5028C45.9168 42.0199 45.3344 41.3546 44.9272 40.5071C44.52 39.6596 44.3164 38.6889 44.3164 37.5952C44.3164 36.4872 44.5247 35.5095 44.9414 34.6619C45.3581 33.8097 45.9452 33.1444 46.7028 32.6662C47.4603 32.188 48.3529 31.9489 49.3803 31.9489C50.2089 31.9489 50.9476 32.1027 51.5962 32.4105C52.2449 32.7135 52.7681 33.1397 53.1658 33.6889C53.5683 34.2382 53.8074 34.8797 53.8832 35.6136H51.8164C51.7028 35.1023 51.4424 34.6619 51.0352 34.2926C50.6327 33.9233 50.0929 33.7386 49.4158 33.7386C48.824 33.7386 48.3055 33.8949 47.8604 34.2074C47.4201 34.5152 47.0768 34.9555 46.8306 35.5284C46.5844 36.0966 46.4613 36.7689 46.4613 37.5455C46.4613 38.3409 46.582 39.0275 46.8235 39.6051C47.065 40.1828 47.4059 40.6302 47.8462 40.9474C48.2913 41.2647 48.8145 41.4233 49.4158 41.4233C49.8183 41.4233 50.1829 41.3499 50.5096 41.2031C50.841 41.0516 51.118 40.8362 51.3406 40.5568C51.5678 40.2775 51.7264 39.9413 51.8164 39.5483H53.8832C53.8074 40.2538 53.5778 40.8835 53.1942 41.4375C52.8107 41.9915 52.297 42.4271 51.6531 42.7443C51.0138 43.0616 50.2634 43.2202 49.4016 43.2202ZM56.1541 43V32.0909H58.2777V43H56.1541ZM57.2266 30.4077C56.8572 30.4077 56.54 30.2846 56.2749 30.0384C56.0144 29.7874 55.8842 29.4891 55.8842 29.1435C55.8842 28.7931 56.0144 28.4948 56.2749 28.2486C56.54 27.9976 56.8572 27.8722 57.2266 27.8722C57.5959 27.8722 57.9107 27.9976 58.1712 28.2486C58.4363 28.4948 58.5689 28.7931 58.5689 29.1435C58.5689 29.4891 58.4363 29.7874 58.1712 30.0384C57.9107 30.2846 57.5959 30.4077 57.2266 30.4077ZM64.3093 43.2415C63.618 43.2415 62.993 43.1136 62.4343 42.858C61.8756 42.5975 61.4329 42.2211 61.1062 41.7287C60.7842 41.2363 60.6232 40.6326 60.6232 39.9176C60.6232 39.3021 60.7416 38.7955 60.9783 38.3977C61.2151 38 61.5347 37.6851 61.9371 37.4531C62.3396 37.2211 62.7894 37.0459 63.2866 36.9276C63.7837 36.8092 64.2904 36.7192 64.8065 36.6577C65.4599 36.5819 65.9902 36.5204 66.3974 36.473C66.8046 36.4209 67.1005 36.3381 67.2852 36.2244C67.4698 36.1108 67.5621 35.9261 67.5621 35.6705V35.6207C67.5621 35.0005 67.387 34.5199 67.0366 34.179C66.6909 33.8381 66.1748 33.6676 65.4883 33.6676C64.7733 33.6676 64.2099 33.8262 63.7979 34.1435C63.3907 34.456 63.109 34.804 62.9528 35.1875L60.957 34.733C61.1938 34.0701 61.5394 33.535 61.994 33.1278C62.4532 32.7159 62.9812 32.4176 63.5778 32.233C64.1744 32.0436 64.8017 31.9489 65.4599 31.9489C65.8955 31.9489 66.3571 32.0009 66.8448 32.1051C67.3372 32.2045 67.7965 32.3892 68.2227 32.6591C68.6535 32.929 69.0063 33.3149 69.2809 33.8168C69.5555 34.3139 69.6928 34.9602 69.6928 35.7557V43H67.619V41.5085H67.5337C67.3964 41.7831 67.1905 42.053 66.9158 42.3182C66.6412 42.5833 66.2885 42.8035 65.8576 42.9787C65.4267 43.1539 64.9106 43.2415 64.3093 43.2415ZM64.771 41.5369C65.3581 41.5369 65.86 41.4209 66.2766 41.1889C66.698 40.9569 67.0176 40.6539 67.2354 40.2798C67.458 39.901 67.5692 39.4962 67.5692 39.0653V37.6591C67.4935 37.7348 67.3467 37.8059 67.1289 37.8722C66.9158 37.9337 66.672 37.9882 66.3974 38.0355C66.1228 38.0781 65.8552 38.1184 65.5948 38.1562C65.3344 38.1894 65.1166 38.2178 64.9414 38.2415C64.5295 38.2936 64.1531 38.3812 63.8121 38.5043C63.476 38.6274 63.2061 38.8049 63.0025 39.0369C62.8036 39.2642 62.7042 39.5672 62.7042 39.946C62.7042 40.4716 62.8983 40.8693 63.2866 41.1392C63.6748 41.4044 64.1696 41.5369 64.771 41.5369Z" fill="black"/>
</svg>

