<svg width="83" height="44" viewBox="0 0 83 44" fill="none" xmlns="http://www.w3.org/2000/svg">
<path fill-rule="evenodd" clip-rule="evenodd" d="M33.5 8C33.5 6.80653 33.9741 5.66193 34.818 4.81802C35.6619 3.97411 36.8065 3.5 38 3.5H48C48.3978 3.5 48.7794 3.65804 49.0607 3.93934C49.342 4.22064 49.5 4.60218 49.5 5V20C49.5 20.2652 49.3946 20.5196 49.2071 20.7071C49.0196 20.8946 48.7652 21 48.5 21H37C36.1582 21.0002 35.3446 20.697 34.7082 20.146C34.0718 19.5951 33.6553 18.8331 33.535 18H33.5V8ZM48 15.5H37C36.4696 15.5 35.9609 15.7107 35.5858 16.0858C35.2107 16.4609 35 16.9696 35 17.5C35 18.0304 35.2107 18.5391 35.5858 18.9142C35.9609 19.2893 36.4696 19.5 37 19.5H48V15.5ZM37.75 8C37.75 7.80109 37.829 7.61032 37.9697 7.46967C38.1103 7.32902 38.3011 7.25 38.5 7.25H45.5C45.6989 7.25 45.8897 7.32902 46.0303 7.46967C46.171 7.61032 46.25 7.80109 46.25 8C46.25 8.19891 46.171 8.38968 46.0303 8.53033C45.8897 8.67098 45.6989 8.75 45.5 8.75H38.5C38.3011 8.75 38.1103 8.67098 37.9697 8.53033C37.829 8.38968 37.75 8.19891 37.75 8ZM38.5 10.25C38.3011 10.25 38.1103 10.329 37.9697 10.4697C37.829 10.6103 37.75 10.8011 37.75 11C37.75 11.1989 37.829 11.3897 37.9697 11.5303C38.1103 11.671 38.3011 11.75 38.5 11.75H43.5C43.6989 11.75 43.8897 11.671 44.0303 11.5303C44.171 11.3897 44.25 11.1989 44.25 11C44.25 10.8011 44.171 10.6103 44.0303 10.4697C43.8897 10.329 43.6989 10.25 43.5 10.25H38.5Z" fill="black"/>
<path d="M1.59801 43V28.4545H10.6179V30.3438H3.79261V34.7756H9.97159V36.6577H3.79261V43H1.59801ZM13.1463 43V32.0909H15.2699V43H13.1463ZM14.2188 30.4077C13.8494 30.4077 13.5322 30.2846 13.267 30.0384C13.0066 29.7874 12.8764 29.4891 12.8764 29.1435C12.8764 28.7931 13.0066 28.4948 13.267 28.2486C13.5322 27.9976 13.8494 27.8722 14.2188 27.8722C14.5881 27.8722 14.9029 27.9976 15.1634 28.2486C15.4285 28.4948 15.5611 28.7931 15.5611 29.1435C15.5611 29.4891 15.4285 29.7874 15.1634 30.0384C14.9029 30.2846 14.5881 30.4077 14.2188 30.4077ZM20.2504 28.4545V43H18.1268V28.4545H20.2504ZM27.7024 43.2202C26.6797 43.2202 25.7872 42.9858 25.0249 42.517C24.2625 42.0483 23.6707 41.3925 23.2493 40.5497C22.8279 39.7069 22.6172 38.7221 22.6172 37.5952C22.6172 36.4635 22.8279 35.474 23.2493 34.6264C23.6707 33.7789 24.2625 33.1207 25.0249 32.652C25.7872 32.1832 26.6797 31.9489 27.7024 31.9489C28.7251 31.9489 29.6177 32.1832 30.38 32.652C31.1423 33.1207 31.7341 33.7789 32.1555 34.6264C32.5769 35.474 32.7876 36.4635 32.7876 37.5952C32.7876 38.7221 32.5769 39.7069 32.1555 40.5497C31.7341 41.3925 31.1423 42.0483 30.38 42.517C29.6177 42.9858 28.7251 43.2202 27.7024 43.2202ZM27.7095 41.4375C28.3724 41.4375 28.9216 41.2623 29.3572 40.9119C29.7929 40.5616 30.1148 40.0952 30.3232 39.5128C30.5362 38.9304 30.6428 38.2888 30.6428 37.5881C30.6428 36.892 30.5362 36.2528 30.3232 35.6705C30.1148 35.0833 29.7929 34.6122 29.3572 34.2571C28.9216 33.902 28.3724 33.7244 27.7095 33.7244C27.0419 33.7244 26.4879 33.902 26.0476 34.2571C25.612 34.6122 25.2876 35.0833 25.0746 35.6705C24.8662 36.2528 24.7621 36.892 24.7621 37.5881C24.7621 38.2888 24.8662 38.9304 25.0746 39.5128C25.2876 40.0952 25.612 40.5616 26.0476 40.9119C26.4879 41.2623 27.0419 41.4375 27.7095 41.4375ZM43.3327 34.7543L41.408 35.0952C41.3275 34.849 41.1997 34.6146 41.0245 34.392C40.854 34.1695 40.622 33.9872 40.3285 33.8452C40.0349 33.7031 39.668 33.6321 39.2276 33.6321C38.6263 33.6321 38.1244 33.767 37.7219 34.0369C37.3195 34.3021 37.1183 34.6454 37.1183 35.0668C37.1183 35.4313 37.2532 35.7249 37.5231 35.9474C37.793 36.17 38.2286 36.3523 38.8299 36.4943L40.5629 36.892C41.5666 37.1241 42.3147 37.4815 42.8072 37.9645C43.2996 38.4474 43.5458 39.0748 43.5458 39.8466C43.5458 40.5 43.3564 41.0824 42.9776 41.5938C42.6036 42.1004 42.0804 42.4981 41.408 42.7869C40.7404 43.0758 39.9663 43.2202 39.0856 43.2202C37.864 43.2202 36.8673 42.9598 36.0955 42.4389C35.3237 41.9134 34.8503 41.1676 34.6751 40.2017L36.7276 39.8892C36.8555 40.4242 37.1183 40.8291 37.516 41.1037C37.9137 41.3736 38.4322 41.5085 39.0714 41.5085C39.7674 41.5085 40.3237 41.3641 40.7404 41.0753C41.1571 40.7817 41.3654 40.4242 41.3654 40.0028C41.3654 39.6619 41.2376 39.3755 40.9819 39.1435C40.7309 38.9115 40.3451 38.7363 39.8242 38.6179L37.9776 38.2131C36.9596 37.9811 36.2068 37.6117 35.7191 37.1051C35.2362 36.5985 34.9947 35.9569 34.9947 35.1804C34.9947 34.5365 35.1746 33.973 35.5344 33.4901C35.8943 33.0071 36.3915 32.6307 37.0259 32.3608C37.6604 32.0862 38.3872 31.9489 39.2063 31.9489C40.3853 31.9489 41.3133 32.2045 41.9904 32.7159C42.6675 33.2225 43.1149 33.902 43.3327 34.7543ZM50.4759 43.2202C49.4531 43.2202 48.5606 42.9858 47.7983 42.517C47.036 42.0483 46.4441 41.3925 46.0227 40.5497C45.6013 39.7069 45.3906 38.7221 45.3906 37.5952C45.3906 36.4635 45.6013 35.474 46.0227 34.6264C46.4441 33.7789 47.036 33.1207 47.7983 32.652C48.5606 32.1832 49.4531 31.9489 50.4759 31.9489C51.4986 31.9489 52.3911 32.1832 53.1534 32.652C53.9157 33.1207 54.5076 33.7789 54.929 34.6264C55.3504 35.474 55.5611 36.4635 55.5611 37.5952C55.5611 38.7221 55.3504 39.7069 54.929 40.5497C54.5076 41.3925 53.9157 42.0483 53.1534 42.517C52.3911 42.9858 51.4986 43.2202 50.4759 43.2202ZM50.483 41.4375C51.1458 41.4375 51.6951 41.2623 52.1307 40.9119C52.5663 40.5616 52.8883 40.0952 53.0966 39.5128C53.3097 38.9304 53.4162 38.2888 53.4162 37.5881C53.4162 36.892 53.3097 36.2528 53.0966 35.6705C52.8883 35.0833 52.5663 34.6122 52.1307 34.2571C51.6951 33.902 51.1458 33.7244 50.483 33.7244C49.8153 33.7244 49.2614 33.902 48.821 34.2571C48.3854 34.6122 48.0611 35.0833 47.848 35.6705C47.6397 36.2528 47.5355 36.892 47.5355 37.5881C47.5355 38.2888 47.6397 38.9304 47.848 39.5128C48.0611 40.0952 48.3854 40.5616 48.821 40.9119C49.2614 41.2623 49.8153 41.4375 50.483 41.4375ZM63.1232 32.0909V33.7955H56.9585V32.0909H63.1232ZM58.6488 43V30.8267C58.6488 30.1449 58.7979 29.5791 59.0962 29.1293C59.3945 28.6747 59.7899 28.3362 60.2823 28.1136C60.7747 27.8864 61.3098 27.7727 61.8874 27.7727C62.3136 27.7727 62.6781 27.8082 62.9812 27.8793C63.2842 27.9455 63.5091 28.0071 63.6559 28.0639L63.1587 29.7827C63.0593 29.7543 62.9315 29.7211 62.7752 29.6832C62.619 29.6406 62.4296 29.6193 62.207 29.6193C61.6909 29.6193 61.3216 29.7472 61.0991 30.0028C60.8813 30.2585 60.7724 30.6278 60.7724 31.1108V43H58.6488ZM65.3143 43V32.0909H67.4379V43H65.3143ZM66.3867 30.4077C66.0174 30.4077 65.7002 30.2846 65.435 30.0384C65.1746 29.7874 65.0444 29.4891 65.0444 29.1435C65.0444 28.7931 65.1746 28.4948 65.435 28.2486C65.7002 27.9976 66.0174 27.8722 66.3867 27.8722C66.756 27.8722 67.0709 27.9976 67.3313 28.2486C67.5965 28.4948 67.729 28.7931 67.729 29.1435C67.729 29.4891 67.5965 29.7874 67.3313 30.0384C67.0709 30.2846 66.756 30.4077 66.3867 30.4077ZM73.4695 43.2415C72.7782 43.2415 72.1532 43.1136 71.5945 42.858C71.0357 42.5975 70.593 42.2211 70.2663 41.7287C69.9444 41.2363 69.7834 40.6326 69.7834 39.9176C69.7834 39.3021 69.9018 38.7955 70.1385 38.3977C70.3752 38 70.6948 37.6851 71.0973 37.4531C71.4998 37.2211 71.9496 37.0459 72.4467 36.9276C72.9439 36.8092 73.4505 36.7192 73.9666 36.6577C74.62 36.5819 75.1503 36.5204 75.5575 36.473C75.9647 36.4209 76.2607 36.3381 76.4453 36.2244C76.63 36.1108 76.7223 35.9261 76.7223 35.6705V35.6207C76.7223 35.0005 76.5471 34.5199 76.1967 34.179C75.8511 33.8381 75.335 33.6676 74.6484 33.6676C73.9335 33.6676 73.37 33.8262 72.9581 34.1435C72.5509 34.456 72.2692 34.804 72.1129 35.1875L70.1172 34.733C70.3539 34.0701 70.6996 33.535 71.1541 33.1278C71.6134 32.7159 72.1413 32.4176 72.7379 32.233C73.3345 32.0436 73.9619 31.9489 74.62 31.9489C75.0556 31.9489 75.5173 32.0009 76.005 32.1051C76.4974 32.2045 76.9567 32.3892 77.3828 32.6591C77.8137 32.929 78.1664 33.3149 78.4411 33.8168C78.7157 34.3139 78.853 34.9602 78.853 35.7557V43H76.7791V41.5085H76.6939C76.5566 41.7831 76.3506 42.053 76.076 42.3182C75.8014 42.5833 75.4486 42.8035 75.0178 42.9787C74.5869 43.1539 74.0708 43.2415 73.4695 43.2415ZM73.9311 41.5369C74.5182 41.5369 75.0201 41.4209 75.4368 41.1889C75.8582 40.9569 76.1778 40.6539 76.3956 40.2798C76.6181 39.901 76.7294 39.4962 76.7294 39.0653V37.6591C76.6536 37.7348 76.5069 37.8059 76.2891 37.8722C76.076 37.9337 75.8321 37.9882 75.5575 38.0355C75.2829 38.0781 75.0154 38.1184 74.755 38.1562C74.4946 38.1894 74.2768 38.2178 74.1016 38.2415C73.6896 38.2936 73.3132 38.3812 72.9723 38.5043C72.6361 38.6274 72.3662 38.8049 72.1626 39.0369C71.9638 39.2642 71.8643 39.5672 71.8643 39.946C71.8643 40.4716 72.0585 40.8693 72.4467 41.1392C72.835 41.4044 73.3298 41.5369 73.9311 41.5369Z" fill="black"/>
</svg>
