<svg width="107" height="44" viewBox="0 0 107 44" fill="none" xmlns="http://www.w3.org/2000/svg">
<path d="M53.5 13C55.7091 13 57.5 11.2091 57.5 9C57.5 6.79086 55.7091 5 53.5 5C51.2909 5 49.5 6.79086 49.5 9C49.5 11.2091 51.2909 13 53.5 13Z" fill="black"/>
<path d="M58.5 12C60.1569 12 61.5 10.6569 61.5 9C61.5 7.34315 60.1569 6 58.5 6C56.8431 6 55.5 7.34315 55.5 9C55.5 10.6569 56.8431 12 58.5 12Z" fill="black"/>
<path d="M48.5 12C50.1569 12 51.5 10.6569 51.5 9C51.5 7.34315 50.1569 6 48.5 6C46.8431 6 45.5 7.34315 45.5 9C45.5 10.6569 46.8431 12 48.5 12Z" fill="black"/>
<path fill-rule="evenodd" clip-rule="evenodd" d="M59.0689 18H61.3949C61.9869 18 62.4399 17.49 62.2969 16.916C61.9279 15.446 60.9479 13 58.4999 13C57.6139 13 56.9199 13.32 56.3779 13.8C57.8859 14.777 58.6659 16.49 59.0689 18ZM50.6219 13.8C50.0409 13.2749 49.2828 12.9891 48.4999 13C46.0519 13 45.0719 15.446 44.7029 16.916C44.5599 17.49 45.0129 18 45.6049 18H47.9319C48.3349 16.49 49.1139 14.777 50.6219 13.8Z" fill="black"/>
<path d="M53.4998 14C57.2088 14 58.1658 17.301 58.4138 19.006C58.4938 19.553 58.0518 20 57.4998 20H49.4998C48.9478 20 48.5068 19.553 48.5858 19.006C48.8338 17.301 49.7908 14 53.4998 14Z" fill="black"/>
<path d="M9.53125 32.2756C9.45549 31.6032 9.14299 31.0824 8.59375 30.7131C8.04451 30.339 7.35322 30.152 6.51989 30.152C5.9233 30.152 5.4072 30.2467 4.97159 30.4361C4.53598 30.6207 4.19744 30.8764 3.95597 31.2031C3.71922 31.5251 3.60085 31.892 3.60085 32.304C3.60085 32.6496 3.68134 32.9479 3.84233 33.1989C4.00805 33.4498 4.22349 33.6605 4.48864 33.831C4.75852 33.9967 5.04735 34.1364 5.35511 34.25C5.66288 34.3589 5.95881 34.4489 6.2429 34.5199L7.66335 34.8892C8.12737 35.0028 8.60322 35.1567 9.09091 35.3509C9.5786 35.545 10.0308 35.8007 10.4474 36.1179C10.8641 36.4351 11.2003 36.8281 11.456 37.2969C11.7164 37.7656 11.8466 38.3267 11.8466 38.9801C11.8466 39.804 11.6335 40.5355 11.2074 41.1747C10.786 41.8139 10.1728 42.3182 9.3679 42.6875C8.56771 43.0568 7.59943 43.2415 6.46307 43.2415C5.37405 43.2415 4.43182 43.0687 3.63636 42.723C2.84091 42.3774 2.21828 41.8873 1.76847 41.2528C1.31866 40.6136 1.07008 39.8561 1.02273 38.9801H3.22443C3.26705 39.5057 3.4375 39.9437 3.7358 40.294C4.03883 40.6397 4.42472 40.8977 4.89347 41.0682C5.36695 41.2339 5.88542 41.3168 6.44886 41.3168C7.06913 41.3168 7.62074 41.2197 8.10369 41.0256C8.59138 40.8267 8.97491 40.5521 9.25426 40.2017C9.53362 39.8466 9.6733 39.4323 9.6733 38.9588C9.6733 38.5279 9.55019 38.1752 9.30398 37.9006C9.0625 37.6259 8.73343 37.3987 8.31676 37.2188C7.90483 37.0388 7.43845 36.8802 6.91761 36.7429L5.19886 36.2741C4.03409 35.9569 3.1108 35.4905 2.42898 34.875C1.75189 34.2595 1.41335 33.4451 1.41335 32.4318C1.41335 31.5937 1.64063 30.8622 2.09517 30.2372C2.54972 29.6122 3.16525 29.1269 3.94176 28.7812C4.71828 28.4309 5.59422 28.2557 6.5696 28.2557C7.55445 28.2557 8.4233 28.4285 9.17614 28.7741C9.93371 29.1198 10.5303 29.5956 10.9659 30.2017C11.4015 30.803 11.6288 31.4943 11.6477 32.2756H9.53125ZM18.8938 43.2202C17.8711 43.2202 16.9786 42.9858 16.2163 42.517C15.454 42.0483 14.8621 41.3925 14.4407 40.5497C14.0193 39.7069 13.8086 38.7221 13.8086 37.5952C13.8086 36.4635 14.0193 35.474 14.4407 34.6264C14.8621 33.7789 15.454 33.1207 16.2163 32.652C16.9786 32.1832 17.8711 31.9489 18.8938 31.9489C19.9165 31.9489 20.8091 32.1832 21.5714 32.652C22.3337 33.1207 22.9255 33.7789 23.3469 34.6264C23.7683 35.474 23.979 36.4635 23.979 37.5952C23.979 38.7221 23.7683 39.7069 23.3469 40.5497C22.9255 41.3925 22.3337 42.0483 21.5714 42.517C20.8091 42.9858 19.9165 43.2202 18.8938 43.2202ZM18.9009 41.4375C19.5638 41.4375 20.113 41.2623 20.5487 40.9119C20.9843 40.5616 21.3062 40.0952 21.5146 39.5128C21.7276 38.9304 21.8342 38.2888 21.8342 37.5881C21.8342 36.892 21.7276 36.2528 21.5146 35.6705C21.3062 35.0833 20.9843 34.6122 20.5487 34.2571C20.113 33.902 19.5638 33.7244 18.9009 33.7244C18.2333 33.7244 17.6793 33.902 17.239 34.2571C16.8034 34.6122 16.479 35.0833 16.266 35.6705C16.0576 36.2528 15.9535 36.892 15.9535 37.5881C15.9535 38.2888 16.0576 38.9304 16.266 39.5128C16.479 40.0952 16.8034 40.5616 17.239 40.9119C17.6793 41.2623 18.2333 41.4375 18.9009 41.4375ZM30.9446 43.2202C29.8887 43.2202 28.9796 42.9811 28.2173 42.5028C27.4598 42.0199 26.8774 41.3546 26.4702 40.5071C26.063 39.6596 25.8594 38.6889 25.8594 37.5952C25.8594 36.4872 26.0677 35.5095 26.4844 34.6619C26.901 33.8097 27.4882 33.1444 28.2457 32.6662C29.0033 32.188 29.8958 31.9489 30.9233 31.9489C31.7519 31.9489 32.4905 32.1027 33.1392 32.4105C33.7879 32.7135 34.3111 33.1397 34.7088 33.6889C35.1113 34.2382 35.3504 34.8797 35.4261 35.6136H33.3594C33.2457 35.1023 32.9853 34.6619 32.5781 34.2926C32.1757 33.9233 31.6359 33.7386 30.9588 33.7386C30.367 33.7386 29.8485 33.8949 29.4034 34.2074C28.9631 34.5152 28.6198 34.9555 28.3736 35.5284C28.1274 36.0966 28.0043 36.7689 28.0043 37.5455C28.0043 38.3409 28.125 39.0275 28.3665 39.6051C28.608 40.1828 28.9489 40.6302 29.3892 40.9474C29.8343 41.2647 30.3575 41.4233 30.9588 41.4233C31.3613 41.4233 31.7259 41.3499 32.0526 41.2031C32.384 41.0516 32.661 40.8362 32.8835 40.5568C33.1108 40.2775 33.2694 39.9413 33.3594 39.5483H35.4261C35.3504 40.2538 35.1207 40.8835 34.7372 41.4375C34.3537 41.9915 33.84 42.4271 33.196 42.7443C32.5568 43.0616 31.8063 43.2202 30.9446 43.2202ZM37.6971 43V32.0909H39.8207V43H37.6971ZM38.7695 30.4077C38.4002 30.4077 38.083 30.2846 37.8178 30.0384C37.5574 29.7874 37.4272 29.4891 37.4272 29.1435C37.4272 28.7931 37.5574 28.4948 37.8178 28.2486C38.083 27.9976 38.4002 27.8722 38.7695 27.8722C39.1388 27.8722 39.4537 27.9976 39.7141 28.2486C39.9793 28.4948 40.1119 28.7931 40.1119 29.1435C40.1119 29.4891 39.9793 29.7874 39.7141 30.0384C39.4537 30.2846 39.1388 30.4077 38.7695 30.4077ZM47.3793 43.2202C46.3045 43.2202 45.3788 42.9905 44.6023 42.5312C43.8305 42.0672 43.2339 41.4162 42.8125 40.5781C42.3958 39.7353 42.1875 38.7481 42.1875 37.6165C42.1875 36.4991 42.3958 35.5142 42.8125 34.6619C43.2339 33.8097 43.821 33.1444 44.5739 32.6662C45.3314 32.188 46.2169 31.9489 47.2301 31.9489C47.8456 31.9489 48.4422 32.0507 49.0199 32.2543C49.5975 32.4579 50.116 32.7775 50.5753 33.2131C51.0346 33.6487 51.3968 34.2145 51.6619 34.9105C51.9271 35.6018 52.0597 36.4422 52.0597 37.4318V38.1847H43.3878V36.5938H49.9787C49.9787 36.035 49.8651 35.5402 49.6378 35.1094C49.4105 34.6738 49.0909 34.3305 48.679 34.0795C48.2718 33.8286 47.7936 33.7031 47.2443 33.7031C46.6477 33.7031 46.1269 33.8499 45.6818 34.1435C45.2415 34.4323 44.9006 34.8111 44.6591 35.2798C44.4223 35.7438 44.304 36.2481 44.304 36.7926V38.0355C44.304 38.7647 44.4318 39.3849 44.6875 39.8963C44.9479 40.4077 45.3101 40.7983 45.7741 41.0682C46.2382 41.3333 46.7803 41.4659 47.4006 41.4659C47.803 41.4659 48.17 41.4091 48.5014 41.2955C48.8329 41.1771 49.1193 41.0019 49.3608 40.7699C49.6023 40.5379 49.7869 40.2514 49.9148 39.9105L51.9247 40.2727C51.7637 40.8646 51.4749 41.383 51.0582 41.8281C50.6463 42.2685 50.1278 42.6117 49.5028 42.858C48.8826 43.0994 48.1747 43.2202 47.3793 43.2202ZM58.4996 43.2131C57.619 43.2131 56.833 42.9882 56.1417 42.5384C55.4551 42.0838 54.9154 41.4375 54.5224 40.5994C54.1341 39.7566 53.94 38.7457 53.94 37.5668C53.94 36.3878 54.1365 35.3793 54.5295 34.5412C54.9272 33.7031 55.4717 33.0616 56.163 32.6165C56.8543 32.1714 57.6379 31.9489 58.5138 31.9489C59.1909 31.9489 59.7354 32.0625 60.1474 32.2898C60.564 32.5123 60.886 32.7727 61.1133 33.071C61.3453 33.3693 61.5252 33.6321 61.6531 33.8594H61.7809V28.4545H63.9045V43H61.8306V41.3026H61.6531C61.5252 41.5346 61.3406 41.7997 61.0991 42.098C60.8623 42.3963 60.5356 42.6567 60.119 42.8793C59.7023 43.1018 59.1625 43.2131 58.4996 43.2131ZM58.9684 41.402C59.5792 41.402 60.0953 41.241 60.5167 40.919C60.9428 40.5923 61.2648 40.1402 61.4826 39.5625C61.7051 38.9848 61.8164 38.3125 61.8164 37.5455C61.8164 36.7879 61.7075 36.125 61.4897 35.5568C61.2719 34.9886 60.9523 34.5459 60.5309 34.2287C60.1095 33.9115 59.5887 33.7528 58.9684 33.7528C58.3292 33.7528 57.7965 33.9186 57.3704 34.25C56.9442 34.5814 56.6223 35.0336 56.4045 35.6065C56.1914 36.1795 56.0849 36.8258 56.0849 37.5455C56.0849 38.2746 56.1938 38.9304 56.4116 39.5128C56.6294 40.0952 56.9513 40.5568 57.3775 40.8977C57.8084 41.2339 58.3387 41.402 58.9684 41.402ZM70.1101 43.2415C69.4188 43.2415 68.7938 43.1136 68.2351 42.858C67.6764 42.5975 67.2337 42.2211 66.907 41.7287C66.585 41.2363 66.424 40.6326 66.424 39.9176C66.424 39.3021 66.5424 38.7955 66.7791 38.3977C67.0159 38 67.3355 37.6851 67.7379 37.4531C68.1404 37.2211 68.5902 37.0459 69.0874 36.9276C69.5845 36.8092 70.0911 36.7192 70.6072 36.6577C71.2607 36.5819 71.791 36.5204 72.1982 36.473C72.6054 36.4209 72.9013 36.3381 73.0859 36.2244C73.2706 36.1108 73.3629 35.9261 73.3629 35.6705V35.6207C73.3629 35.0005 73.1877 34.5199 72.8374 34.179C72.4917 33.8381 71.9756 33.6676 71.2891 33.6676C70.5741 33.6676 70.0107 33.8262 69.5987 34.1435C69.1915 34.456 68.9098 34.804 68.7536 35.1875L66.7578 34.733C66.9946 34.0701 67.3402 33.535 67.7947 33.1278C68.254 32.7159 68.782 32.4176 69.3786 32.233C69.9751 32.0436 70.6025 31.9489 71.2607 31.9489C71.6963 31.9489 72.1579 32.0009 72.6456 32.1051C73.138 32.2045 73.5973 32.3892 74.0234 32.6591C74.4543 32.929 74.8071 33.3149 75.0817 33.8168C75.3563 34.3139 75.4936 34.9602 75.4936 35.7557V43H73.4197V41.5085H73.3345C73.1972 41.7831 72.9912 42.053 72.7166 42.3182C72.442 42.5833 72.0893 42.8035 71.6584 42.9787C71.2275 43.1539 70.7114 43.2415 70.1101 43.2415ZM70.5717 41.5369C71.1589 41.5369 71.6607 41.4209 72.0774 41.1889C72.4988 40.9569 72.8184 40.6539 73.0362 40.2798C73.2588 39.901 73.37 39.4962 73.37 39.0653V37.6591C73.2943 37.7348 73.1475 37.8059 72.9297 37.8722C72.7166 37.9337 72.4728 37.9882 72.1982 38.0355C71.9235 38.0781 71.656 38.1184 71.3956 38.1562C71.1352 38.1894 70.9174 38.2178 70.7422 38.2415C70.3303 38.2936 69.9538 38.3812 69.6129 38.5043C69.2768 38.6274 69.0069 38.8049 68.8033 39.0369C68.6044 39.2642 68.505 39.5672 68.505 39.946C68.505 40.4716 68.6991 40.8693 69.0874 41.1392C69.4756 41.4044 69.9704 41.5369 70.5717 41.5369ZM82.4059 43.2131C81.5252 43.2131 80.7392 42.9882 80.0479 42.5384C79.3614 42.0838 78.8216 41.4375 78.4286 40.5994C78.0404 39.7566 77.8462 38.7457 77.8462 37.5668C77.8462 36.3878 78.0427 35.3793 78.4357 34.5412C78.8335 33.7031 79.378 33.0616 80.0692 32.6165C80.7605 32.1714 81.5442 31.9489 82.4201 31.9489C83.0972 31.9489 83.6417 32.0625 84.0536 32.2898C84.4703 32.5123 84.7923 32.7727 85.0195 33.071C85.2515 33.3693 85.4315 33.6321 85.5593 33.8594H85.6871V28.4545H87.8107V43H85.7369V41.3026H85.5593C85.4315 41.5346 85.2468 41.7997 85.0053 42.098C84.7686 42.3963 84.4419 42.6567 84.0252 42.8793C83.6085 43.1018 83.0688 43.2131 82.4059 43.2131ZM82.8746 41.402C83.4854 41.402 84.0015 41.241 84.4229 40.919C84.8491 40.5923 85.171 40.1402 85.3888 39.5625C85.6114 38.9848 85.7227 38.3125 85.7227 37.5455C85.7227 36.7879 85.6138 36.125 85.396 35.5568C85.1781 34.9886 84.8585 34.5459 84.4371 34.2287C84.0157 33.9115 83.4949 33.7528 82.8746 33.7528C82.2354 33.7528 81.7028 33.9186 81.2766 34.25C80.8505 34.5814 80.5285 35.0336 80.3107 35.6065C80.0977 36.1795 79.9911 36.8258 79.9911 37.5455C79.9911 38.2746 80.1 38.9304 80.3178 39.5128C80.5356 40.0952 80.8576 40.5568 81.2837 40.8977C81.7146 41.2339 82.2449 41.402 82.8746 41.402ZM95.5433 43.2202C94.4685 43.2202 93.5429 42.9905 92.7663 42.5312C91.9946 42.0672 91.398 41.4162 90.9766 40.5781C90.5599 39.7353 90.3516 38.7481 90.3516 37.6165C90.3516 36.4991 90.5599 35.5142 90.9766 34.6619C91.398 33.8097 91.9851 33.1444 92.7379 32.6662C93.4955 32.188 94.3809 31.9489 95.3942 31.9489C96.0097 31.9489 96.6063 32.0507 97.1839 32.2543C97.7616 32.4579 98.2801 32.7775 98.7393 33.2131C99.1986 33.6487 99.5608 34.2145 99.826 34.9105C100.091 35.6018 100.224 36.4422 100.224 37.4318V38.1847H91.5518V36.5938H98.1428C98.1428 36.035 98.0291 35.5402 97.8018 35.1094C97.5746 34.6738 97.255 34.3305 96.843 34.0795C96.4358 33.8286 95.9576 33.7031 95.4084 33.7031C94.8118 33.7031 94.291 33.8499 93.8459 34.1435C93.4055 34.4323 93.0646 34.8111 92.8232 35.2798C92.5864 35.7438 92.468 36.2481 92.468 36.7926V38.0355C92.468 38.7647 92.5959 39.3849 92.8516 39.8963C93.112 40.4077 93.4742 40.7983 93.9382 41.0682C94.4022 41.3333 94.9444 41.4659 95.5646 41.4659C95.9671 41.4659 96.334 41.4091 96.6655 41.2955C96.9969 41.1771 97.2834 41.0019 97.5249 40.7699C97.7663 40.5379 97.951 40.2514 98.0788 39.9105L100.089 40.2727C99.9278 40.8646 99.639 41.383 99.2223 41.8281C98.8104 42.2685 98.2919 42.6117 97.6669 42.858C97.0466 43.0994 96.3388 43.2202 95.5433 43.2202Z" fill="black"/>
</svg>
