<svg width="109" height="48" viewBox="0 0 109 48" fill="none" xmlns="http://www.w3.org/2000/svg">
<g clip-path="url(#clip0_533_1699)">
<path d="M60.004 7.501H50V17.504H60.003L60.004 7.501Z" fill="black"/>
<path d="M64.005 5.5V3.5H62.005V1.5H60.004V3.5H58.004V1.5H56.003V3.5H54.003V1.5H52.001V3.5H50.001V1.5H48V3.5H46V5.5H44V7.501H46V9.501H44V11.502H46V13.502H44V15.503H46V17.503H44V19.504H46V21.504H48V23.505H50.001V21.505H52.001V23.505H54.002V21.505H56.002V23.505H58.003V21.505H60.003V23.505H62.004V21.505H64.004V19.505H66.005V17.504H64.005V15.504H66.005V13.503H64.005V11.503H66.005V9.501H64.005V7.501H66.005V5.5H64.005ZM62.005 19.504H48V5.501H62.003L62.005 19.504Z" fill="black"/>
</g>
<path d="M0.880682 30.3438V28.4545H12.1378V30.3438H7.59943V43H5.41193V30.3438H0.880682ZM17.5746 43.2202C16.4998 43.2202 15.5741 42.9905 14.7976 42.5312C14.0258 42.0672 13.4292 41.4162 13.0078 40.5781C12.5911 39.7353 12.3828 38.7481 12.3828 37.6165C12.3828 36.4991 12.5911 35.5142 13.0078 34.6619C13.4292 33.8097 14.0163 33.1444 14.7692 32.6662C15.5268 32.188 16.4122 31.9489 17.4254 31.9489C18.041 31.9489 18.6375 32.0507 19.2152 32.2543C19.7929 32.4579 20.3113 32.7775 20.7706 33.2131C21.2299 33.6487 21.5921 34.2145 21.8572 34.9105C22.1224 35.6018 22.255 36.4422 22.255 37.4318V38.1847H13.5831V36.5938H20.174C20.174 36.035 20.0604 35.5402 19.8331 35.1094C19.6058 34.6738 19.2862 34.3305 18.8743 34.0795C18.4671 33.8286 17.9889 33.7031 17.4396 33.7031C16.843 33.7031 16.3222 33.8499 15.8771 34.1435C15.4368 34.4323 15.0959 34.8111 14.8544 35.2798C14.6177 35.7438 14.4993 36.2481 14.4993 36.7926V38.0355C14.4993 38.7647 14.6271 39.3849 14.8828 39.8963C15.1432 40.4077 15.5054 40.7983 15.9695 41.0682C16.4335 41.3333 16.9756 41.4659 17.5959 41.4659C17.9983 41.4659 18.3653 41.4091 18.6967 41.2955C19.0282 41.1771 19.3146 41.0019 19.5561 40.7699C19.7976 40.5379 19.9822 40.2514 20.1101 39.9105L22.12 40.2727C21.959 40.8646 21.6702 41.383 21.2536 41.8281C20.8416 42.2685 20.3232 42.6117 19.6982 42.858C19.0779 43.0994 18.37 43.2202 17.5746 43.2202ZM29.2063 43.2202C28.1504 43.2202 27.2414 42.9811 26.479 42.5028C25.7215 42.0199 25.1391 41.3546 24.7319 40.5071C24.3247 39.6596 24.1211 38.6889 24.1211 37.5952C24.1211 36.4872 24.3294 35.5095 24.7461 34.6619C25.1628 33.8097 25.7499 33.1444 26.5075 32.6662C27.265 32.188 28.1576 31.9489 29.185 31.9489C30.0136 31.9489 30.7522 32.1027 31.4009 32.4105C32.0496 32.7135 32.5728 33.1397 32.9705 33.6889C33.373 34.2382 33.6121 34.8797 33.6879 35.6136H31.6211C31.5075 35.1023 31.247 34.6619 30.8398 34.2926C30.4374 33.9233 29.8976 33.7386 29.2205 33.7386C28.6287 33.7386 28.1102 33.8949 27.6651 34.2074C27.2248 34.5152 26.8815 34.9555 26.6353 35.5284C26.3891 36.0966 26.266 36.7689 26.266 37.5455C26.266 38.3409 26.3867 39.0275 26.6282 39.6051C26.8697 40.1828 27.2106 40.6302 27.6509 40.9474C28.096 41.2647 28.6192 41.4233 29.2205 41.4233C29.623 41.4233 29.9876 41.3499 30.3143 41.2031C30.6457 41.0516 30.9227 40.8362 31.1452 40.5568C31.3725 40.2775 31.5311 39.9413 31.6211 39.5483H33.6879C33.6121 40.2538 33.3825 40.8835 32.9989 41.4375C32.6154 41.9915 32.1017 42.4271 31.4577 42.7443C30.8185 43.0616 30.0681 43.2202 29.2063 43.2202ZM38.0824 36.5227V43H35.9588V32.0909H37.9972V33.8665H38.1321C38.383 33.2888 38.776 32.8248 39.3111 32.4744C39.8509 32.1241 40.5303 31.9489 41.3494 31.9489C42.0928 31.9489 42.7438 32.1051 43.3026 32.4176C43.8613 32.7254 44.2945 33.1847 44.6023 33.7955C44.91 34.4062 45.0639 35.1615 45.0639 36.0611V43H42.9403V36.3168C42.9403 35.526 42.7344 34.9081 42.3224 34.4631C41.9105 34.0133 41.3447 33.7884 40.625 33.7884C40.1326 33.7884 39.6946 33.8949 39.3111 34.108C38.9323 34.321 38.6316 34.6335 38.4091 35.0455C38.1913 35.4527 38.0824 35.9451 38.0824 36.5227ZM52.5071 43.2202C51.4844 43.2202 50.5919 42.9858 49.8295 42.517C49.0672 42.0483 48.4754 41.3925 48.054 40.5497C47.6326 39.7069 47.4219 38.7221 47.4219 37.5952C47.4219 36.4635 47.6326 35.474 48.054 34.6264C48.4754 33.7789 49.0672 33.1207 49.8295 32.652C50.5919 32.1832 51.4844 31.9489 52.5071 31.9489C53.5298 31.9489 54.4223 32.1832 55.1847 32.652C55.947 33.1207 56.5388 33.7789 56.9602 34.6264C57.3816 35.474 57.5923 36.4635 57.5923 37.5952C57.5923 38.7221 57.3816 39.7069 56.9602 40.5497C56.5388 41.3925 55.947 42.0483 55.1847 42.517C54.4223 42.9858 53.5298 43.2202 52.5071 43.2202ZM52.5142 41.4375C53.1771 41.4375 53.7263 41.2623 54.1619 40.9119C54.5975 40.5616 54.9195 40.0952 55.1278 39.5128C55.3409 38.9304 55.4474 38.2888 55.4474 37.5881C55.4474 36.892 55.3409 36.2528 55.1278 35.6705C54.9195 35.0833 54.5975 34.6122 54.1619 34.2571C53.7263 33.902 53.1771 33.7244 52.5142 33.7244C51.8466 33.7244 51.2926 33.902 50.8523 34.2571C50.4167 34.6122 50.0923 35.0833 49.8793 35.6705C49.6709 36.2528 49.5668 36.892 49.5668 37.5881C49.5668 38.2888 49.6709 38.9304 49.8793 39.5128C50.0923 40.0952 50.4167 40.5616 50.8523 40.9119C51.2926 41.2623 51.8466 41.4375 52.5142 41.4375ZM62.0863 28.4545V43H59.9627V28.4545H62.0863ZM69.5384 43.2202C68.5156 43.2202 67.6231 42.9858 66.8608 42.517C66.0985 42.0483 65.5066 41.3925 65.0852 40.5497C64.6638 39.7069 64.4531 38.7221 64.4531 37.5952C64.4531 36.4635 64.6638 35.474 65.0852 34.6264C65.5066 33.7789 66.0985 33.1207 66.8608 32.652C67.6231 32.1832 68.5156 31.9489 69.5384 31.9489C70.5611 31.9489 71.4536 32.1832 72.2159 32.652C72.9782 33.1207 73.5701 33.7789 73.9915 34.6264C74.4129 35.474 74.6236 36.4635 74.6236 37.5952C74.6236 38.7221 74.4129 39.7069 73.9915 40.5497C73.5701 41.3925 72.9782 42.0483 72.2159 42.517C71.4536 42.9858 70.5611 43.2202 69.5384 43.2202ZM69.5455 41.4375C70.2083 41.4375 70.7576 41.2623 71.1932 40.9119C71.6288 40.5616 71.9508 40.0952 72.1591 39.5128C72.3722 38.9304 72.4787 38.2888 72.4787 37.5881C72.4787 36.892 72.3722 36.2528 72.1591 35.6705C71.9508 35.0833 71.6288 34.6122 71.1932 34.2571C70.7576 33.902 70.2083 33.7244 69.5455 33.7244C68.8778 33.7244 68.3239 33.902 67.8835 34.2571C67.4479 34.6122 67.1236 35.0833 66.9105 35.6705C66.7022 36.2528 66.598 36.892 66.598 37.5881C66.598 38.2888 66.7022 38.9304 66.9105 39.5128C67.1236 40.0952 67.4479 40.5616 67.8835 40.9119C68.3239 41.2623 68.8778 41.4375 69.5455 41.4375ZM81.5678 47.3182C80.7013 47.3182 79.9556 47.2045 79.3306 46.9773C78.7103 46.75 78.2037 46.4493 77.8107 46.0753C77.4177 45.7012 77.1242 45.2917 76.93 44.8466L78.7553 44.0938C78.8832 44.3021 79.0536 44.5223 79.2667 44.7543C79.4845 44.991 79.7781 45.1922 80.1474 45.358C80.5214 45.5237 81.002 45.6065 81.5891 45.6065C82.3941 45.6065 83.0593 45.41 83.5849 45.017C84.1104 44.6288 84.3732 44.0085 84.3732 43.1562V41.0114H84.2383C84.1104 41.2434 83.9258 41.5014 83.6843 41.7855C83.4476 42.0696 83.1209 42.3158 82.7042 42.5241C82.2875 42.7325 81.7454 42.8366 81.0778 42.8366C80.216 42.8366 79.4395 42.6354 78.7482 42.233C78.0617 41.8258 77.5172 41.2268 77.1147 40.4361C76.717 39.6406 76.5181 38.6629 76.5181 37.5028C76.5181 36.3428 76.7146 35.3485 77.1076 34.5199C77.5053 33.6913 78.0498 33.0568 78.7411 32.6165C79.4324 32.1714 80.216 31.9489 81.092 31.9489C81.7691 31.9489 82.3159 32.0625 82.7326 32.2898C83.1493 32.5123 83.4736 32.7727 83.7056 33.071C83.9424 33.3693 84.1246 33.6321 84.2525 33.8594H84.4087V32.0909H86.4897V43.2415C86.4897 44.179 86.2719 44.9484 85.8363 45.5497C85.4007 46.151 84.8112 46.5961 84.0678 46.8849C83.3292 47.1738 82.4959 47.3182 81.5678 47.3182ZM81.5465 41.0753C82.1573 41.0753 82.6734 40.9332 83.0948 40.6491C83.521 40.3603 83.8429 39.9484 84.0607 39.4134C84.2833 38.8736 84.3945 38.2273 84.3945 37.4744C84.3945 36.7405 84.2856 36.0942 84.0678 35.5355C83.85 34.9768 83.5304 34.5412 83.109 34.2287C82.6876 33.9115 82.1668 33.7528 81.5465 33.7528C80.9073 33.7528 80.3746 33.9186 79.9485 34.25C79.5224 34.5767 79.2004 35.0218 78.9826 35.5852C78.7695 36.1487 78.663 36.7784 78.663 37.4744C78.663 38.1894 78.7719 38.8168 78.9897 39.3565C79.2075 39.8963 79.5295 40.3177 79.9556 40.6207C80.3865 40.9238 80.9168 41.0753 81.5465 41.0753ZM89.3377 43V32.0909H91.4613V43H89.3377ZM90.4102 30.4077C90.0408 30.4077 89.7236 30.2846 89.4585 30.0384C89.198 29.7874 89.0678 29.4891 89.0678 29.1435C89.0678 28.7931 89.198 28.4948 89.4585 28.2486C89.7236 27.9976 90.0408 27.8722 90.4102 27.8722C90.7795 27.8722 91.0943 27.9976 91.3548 28.2486C91.6199 28.4948 91.7525 28.7931 91.7525 29.1435C91.7525 29.4891 91.6199 29.7874 91.3548 30.0384C91.0943 30.2846 90.7795 30.4077 90.4102 30.4077ZM97.4929 43.2415C96.8016 43.2415 96.1766 43.1136 95.6179 42.858C95.0592 42.5975 94.6165 42.2211 94.2898 41.7287C93.9678 41.2363 93.8068 40.6326 93.8068 39.9176C93.8068 39.3021 93.9252 38.7955 94.1619 38.3977C94.3987 38 94.7183 37.6851 95.1207 37.4531C95.5232 37.2211 95.973 37.0459 96.4702 36.9276C96.9673 36.8092 97.474 36.7192 97.9901 36.6577C98.6435 36.5819 99.1738 36.5204 99.581 36.473C99.9882 36.4209 100.284 36.3381 100.469 36.2244C100.653 36.1108 100.746 35.9261 100.746 35.6705V35.6207C100.746 35.0005 100.571 34.5199 100.22 34.179C99.8745 33.8381 99.3584 33.6676 98.6719 33.6676C97.9569 33.6676 97.3935 33.8262 96.9815 34.1435C96.5743 34.456 96.2926 34.804 96.1364 35.1875L94.1406 34.733C94.3774 34.0701 94.723 33.535 95.1776 33.1278C95.6368 32.7159 96.1648 32.4176 96.7614 32.233C97.358 32.0436 97.9853 31.9489 98.6435 31.9489C99.0791 31.9489 99.5407 32.0009 100.028 32.1051C100.521 32.2045 100.98 32.3892 101.406 32.6591C101.837 32.929 102.19 33.3149 102.464 33.8168C102.739 34.3139 102.876 34.9602 102.876 35.7557V43H100.803V41.5085H100.717C100.58 41.7831 100.374 42.053 100.099 42.3182C99.8248 42.5833 99.4721 42.8035 99.0412 42.9787C98.6103 43.1539 98.0942 43.2415 97.4929 43.2415ZM97.9545 41.5369C98.5417 41.5369 99.0436 41.4209 99.4602 41.1889C99.8816 40.9569 100.201 40.6539 100.419 40.2798C100.642 39.901 100.753 39.4962 100.753 39.0653V37.6591C100.677 37.7348 100.53 37.8059 100.312 37.8722C100.099 37.9337 99.8556 37.9882 99.581 38.0355C99.3063 38.0781 99.0388 38.1184 98.7784 38.1562C98.518 38.1894 98.3002 38.2178 98.125 38.2415C97.7131 38.2936 97.3366 38.3812 96.9957 38.5043C96.6596 38.6274 96.3897 38.8049 96.1861 39.0369C95.9872 39.2642 95.8878 39.5672 95.8878 39.946C95.8878 40.4716 96.0819 40.8693 96.4702 41.1392C96.8584 41.4044 97.3532 41.5369 97.9545 41.5369Z" fill="black"/>
<defs>
<clipPath id="clip0_533_1699">
<rect width="24" height="24" fill="white" transform="translate(42.5)"/>
</clipPath>
</defs>
</svg>
